<svg viewBox="0 0 60 60" xmlns="http://www.w3.org/2000/svg" xmlns:xlink="http://www.w3.org/1999/xlink" width="60.000000" height="60.000000" fill="none">
	<rect id="github 1" width="60.000000" height="60.000000" x="0.000000" y="0.000000" />
	<path id="Форма 29" d="M30 1C13.9848 1 1 14.1881 1 30.4541C1 44.2558 10.3573 55.8042 22.9723 59C22.837 58.6024 22.75 58.1409 22.75 57.569L22.75 52.5348C21.5731 52.5348 19.6011 52.5348 19.1057 52.5348C17.1216 52.5348 15.3574 51.6684 14.5019 50.0582C13.5522 48.2689 13.3878 45.5321 11.034 43.8581C10.3356 43.301 10.8673 42.6653 11.672 42.7512C13.1583 43.1782 14.3908 44.214 15.5508 45.7506C16.7059 47.2895 17.2497 47.6381 19.4077 47.6381C20.4542 47.6381 22.0202 47.5767 23.4943 47.3411C24.287 45.2965 25.6572 43.4139 27.332 42.5253C17.675 41.5165 13.0664 36.637 13.0664 30.0123C13.0664 27.1601 14.2627 24.4013 16.2951 22.0768C15.6281 19.7696 14.7895 15.0643 16.5513 13.2725C20.8964 13.2725 23.5233 16.1345 24.1541 16.9077C26.3194 16.1541 28.6974 15.727 31.1963 15.727C33.6999 15.727 36.0876 16.1541 38.2578 16.9126C38.8812 16.1443 41.5106 13.2725 45.8654 13.2725C47.6344 15.0668 46.7862 19.7917 46.1119 22.094C48.1323 24.4135 49.3212 27.165 49.3212 30.0123C49.3212 36.6321 44.7199 41.5092 35.0774 42.5229C37.7309 43.9293 39.6667 47.8811 39.6667 50.8584L39.6667 57.569C39.6667 57.8243 39.6111 58.0084 39.5821 58.2268C50.8824 54.2039 59 43.3059 59 30.4541C59 14.1881 46.0153 1 30 1Z" fill="rgb(24,24,24)" fill-rule="nonzero" />
</svg>
