<svg viewBox="0 0 21 21" xmlns="http://www.w3.org/2000/svg" xmlns:xlink="http://www.w3.org/1999/xlink" width="21.000000" height="21.000000" fill="none">
	<rect id="js" width="21.000000" height="21.000000" x="0.000000" y="0.000000" fill="rgb(255,255,255)" fill-opacity="0" />
	<g id="Group">
		<path id="Vector" d="M3 0L18 0C19.6569 0 21 1.34315 21 3L21 18C21 19.6569 19.6569 21 18 21L3 21C1.34315 21 0 19.6569 0 18L0 3C0 1.34315 1.34315 0 3 0Z" fill="rgb(247,223,30)" fill-rule="nonzero" />
		<path id="Vector" d="M5.52164 17.5492L7.12871 16.5766C7.43874 17.1263 7.72077 17.5914 8.39727 17.5914C9.04574 17.5914 9.45457 17.3377 9.45457 16.3511L9.45457 9.64105L11.428 9.64105L11.428 16.379C11.428 18.423 10.2299 19.3533 8.48187 19.3533C6.90317 19.3533 5.98677 18.5357 5.52161 17.549L5.52164 17.5492Z" fill="rgb(0,0,0)" fill-rule="nonzero" />
		<path id="Vector" d="M12.5 17.3377L14.1069 16.4073C14.5299 17.0981 15.0796 17.6055 16.0522 17.6055C16.8699 17.6055 17.3914 17.1967 17.3914 16.6328C17.3914 15.9562 16.8557 15.7165 15.9535 15.322L15.4603 15.1104C14.0365 14.5043 13.092 13.7431 13.092 12.1361C13.092 10.656 14.2197 9.5282 15.9818 9.5282C17.2364 9.5282 18.1386 9.96523 18.7869 11.1071L17.2504 12.0938C16.9121 11.4877 16.5457 11.2481 15.9818 11.2481C15.4039 11.2481 15.0373 11.6146 15.0373 12.0938C15.0373 12.6858 15.4039 12.9255 16.2496 13.2921L16.7429 13.5035C18.4204 14.2225 19.3649 14.9554 19.3649 16.6046C19.3649 18.3809 17.9694 19.3535 16.0946 19.3535C14.262 19.3535 13.0779 18.4795 12.5 17.3377Z" fill="rgb(0,0,0)" fill-rule="nonzero" />
	</g>
</svg>
