<svg viewBox="0 0 23 21" xmlns="http://www.w3.org/2000/svg" xmlns:xlink="http://www.w3.org/1999/xlink" width="23.000000" height="21.000000" fill="none">
	<rect id="react" width="23.000000" height="21.000000" x="0.000000" y="0.000000" fill="rgb(255,255,255)" fill-opacity="0" />
	<path id="Vector" d="M11.5 12.6037C12.6321 12.6037 13.55 11.6619 13.55 10.5C13.55 9.33812 12.6321 8.39624 11.5 8.39624C10.3678 8.39624 9.44995 9.33812 9.44995 10.5C9.44995 11.6619 10.3678 12.6037 11.5 12.6037Z" fill="rgb(97,218,251)" fill-rule="evenodd" />
	<g id="Group">
		<path id="Vector" d="M11.5 14.8101C5.42487 14.8101 0.5 12.8804 0.5 10.5C0.5 8.11959 5.42487 6.18988 11.5 6.18988C17.5751 6.18988 22.5 8.11959 22.5 10.5C22.5 12.8804 17.5751 14.8101 11.5 14.8101Z" stroke="rgb(97,218,251)" stroke-width="1.000000" />
		<path id="Vector" d="M11.217 8.4556C5.02202 8.4556 0 6.56275 0 4.2278C0 1.89285 5.02202 0 11.217 0C17.412 0 22.434 1.89285 22.434 4.2278C22.434 6.56275 17.412 8.4556 11.217 8.4556Z" stroke="rgb(97,218,251)" stroke-width="1.000000" transform="matrix(0.490327,0.871538,-0.860331,0.509735,9.63733,-1.43109)" />
		<path id="Vector" d="M11.217 8.4556C5.02202 8.4556 0 6.56275 0 4.2278C0 1.89285 5.02202 0 11.217 0C17.412 0 22.434 1.89285 22.434 4.2278C22.434 6.56275 17.412 8.4556 11.217 8.4556Z" stroke="rgb(97,218,251)" stroke-width="1.000000" transform="matrix(-0.490327,0.871538,-0.860331,-0.509735,20.6373,2.87903)" />
	</g>
</svg>
