<svg viewBox="0 0 21 21" xmlns="http://www.w3.org/2000/svg" xmlns:xlink="http://www.w3.org/1999/xlink" width="21.000000" height="21.000000" fill="none">
	<defs>
		<clipPath>
			<rect width="21.000000" height="21.000000" x="0.000000" y="0.000000" rx="2.000000" fill="rgb(255,255,255)" />
		</clipPath>
	</defs>
	<rect width="21.000000" height="21.000000" x="0.000000" y="0.000000" rx="2.000000" fill="rgb(255,255,255)" fill-opacity="0" />
	<path d="M16.3225 8.30779C15.7218 8.11892 15.4115 8.18259 14.7815 8.11373C13.8074 8.00749 13.4193 7.62681 13.2547 6.64705C13.1626 6.10011 13.2714 5.29932 13.0362 4.80353C12.5864 3.8582 11.534 3.43423 10.4766 3.67622C9.58387 3.88083 8.84108 4.77304 8.79992 5.68886C8.75288 6.73453 9.34869 7.62674 10.3717 7.93465C10.8578 8.08121 11.3742 8.15498 11.8818 8.19237C12.8127 8.26024 12.8843 8.77773 13.1361 9.20368C13.2949 9.47222 13.4487 9.73684 13.4487 10.5376C13.4487 11.3383 13.2939 11.6029 13.1361 11.8715C12.8843 12.2964 12.5737 12.5748 11.6427 12.6437C11.1351 12.681 10.6177 12.7548 10.1326 12.9014C9.1096 13.2103 8.51378 14.1015 8.56082 15.1472C8.60198 16.063 9.34477 16.9552 10.2375 17.1598C11.2949 17.4028 12.3473 16.9778 12.7971 16.0325C13.0332 15.5367 13.1626 14.975 13.2547 14.4281C13.4203 13.4483 13.8084 13.0676 14.7815 12.9614C15.4115 12.8925 16.0637 12.9614 16.6541 12.6259C17.2781 12.1701 17.8355 11.4858 17.8355 10.5376C17.8355 9.58928 17.2348 8.59503 16.3225 8.30779Z" fill="rgb(244,66,80)" fill-rule="nonzero" />
	<path d="M6.32854 12.7599C5.10069 12.7599 4.09912 11.7564 4.09912 10.5263C4.09912 9.29616 5.10069 8.29272 6.32854 8.29272C7.5564 8.29272 8.55797 9.29616 8.55797 10.5263C8.55797 11.7555 7.55541 12.7599 6.32854 12.7599Z" fill="#000000" fill-rule="nonzero" />
	<path d="M2.22155 17.2991C0.99567 17.2961 -0.00293853 16.2887 6.49725e-06 15.0576C0.00296458 13.8285 1.00846 12.828 2.23729 12.8319C3.46414 12.8349 4.46275 13.8423 4.45882 15.0734C4.45587 16.3015 3.45036 17.302 2.22155 17.2991Z" fill="#000000" fill-rule="nonzero" />
	<path d="M18.7872 17.299C17.5574 17.3059 16.548 16.3094 16.541 15.0822C16.5342 13.8502 17.5289 12.8389 18.7537 12.8319C19.9835 12.8251 20.9929 13.8216 20.9998 15.0487C21.0067 16.2798 20.012 17.2921 18.7872 17.299Z" fill="#000000" fill-rule="nonzero" />
</svg>
