<svg viewBox="0 0 21 21" xmlns="http://www.w3.org/2000/svg" xmlns:xlink="http://www.w3.org/1999/xlink" width="21.000000" height="21.000000" fill="none">
	<rect id="tool 1" width="21.000000" height="21.000000" x="0.000000" y="0.000000" />
	<path id="Форма 16" d="M18.69 8.61001C17.22 8.89001 15.89 8.61001 15.4 7.70001C14.91 6.79001 15.26 5.53001 16.31 4.41001C15.4 3.50001 14.21 2.87001 12.95 2.45001C12.46 3.92001 11.55 4.90001 10.5 4.90001C9.44998 4.90001 8.53998 3.92001 8.04998 2.45001C6.78998 2.87001 5.66998 3.50001 4.75998 4.41001C5.80998 5.53001 6.15998 6.86001 5.66998 7.70001C5.17998 8.61001 3.84998 8.89001 2.37998 8.61001C2.16998 9.17001 2.09998 9.87001 2.09998 10.5C2.09998 11.13 2.16998 11.83 2.30998 12.39C3.77998 12.11 5.10998 12.39 5.59998 13.3C6.08998 14.21 5.73998 15.47 4.68998 16.59C5.59998 17.5 6.78998 18.13 8.04998 18.55C8.53998 17.08 9.44998 16.1 10.5 16.1C11.55 16.1 12.46 17.08 12.95 18.55C14.21 18.2 15.33 17.5 16.31 16.59C15.26 15.47 14.91 14.14 15.4 13.3C15.89 12.39 17.22 12.11 18.69 12.39C18.83 11.76 18.9 11.13 18.9 10.5C18.9 9.87001 18.83 9.17001 18.69 8.61001Z" fill="rgb(138,138,255)" fill-rule="nonzero" />
	<path id="Форма 16" d="M15.4 7.70001C14.91 6.79001 15.26 5.53001 16.31 4.41001C15.4 3.50001 14.21 2.87001 12.95 2.45001C12.46 3.92001 11.55 4.90001 10.5 4.90001C9.44998 4.90001 8.53998 3.92001 8.04998 2.45001C6.78998 2.87001 5.66998 3.50001 4.75998 4.41001C5.80998 5.53001 6.15998 6.86001 5.66998 7.70001C5.17998 8.61001 3.84998 8.89001 2.37998 8.61001C2.16998 9.17001 2.09998 9.87001 2.09998 10.5C2.09998 11.13 2.16998 11.83 2.30998 12.39C3.77998 12.11 5.10998 12.39 5.59998 13.3C6.08998 14.21 5.73998 15.47 4.68998 16.59C5.59998 17.5 6.78998 18.13 8.04998 18.55C8.53998 17.08 9.44998 16.1 10.5 16.1C11.55 16.1 12.46 17.08 12.95 18.55C14.21 18.2 15.33 17.5 16.31 16.59C15.26 15.47 14.91 14.14 15.4 13.3C15.89 12.39 17.22 12.11 18.69 12.39C18.83 11.76 18.9 11.13 18.9 10.5C18.9 9.87001 18.83 9.17001 18.69 8.61001C17.22 8.89001 15.89 8.61001 15.4 7.70001Z" fill-rule="nonzero" stroke="rgb(138,138,255)" stroke-linecap="round" stroke-linejoin="round" stroke-width="2.000000" />
	<circle id="Эллипс 1" cx="10.5000248" cy="10.5000248" r="2.0999999" fill="rgb(227,250,255)" />
	<circle id="Эллипс 1" cx="10.5000248" cy="10.5000248" r="2.0999999" stroke="rgb(227,250,255)" stroke-linecap="round" stroke-linejoin="round" stroke-width="2.000000" />
</svg>
