<svg viewBox="0 0 16 16" xmlns="http://www.w3.org/2000/svg" xmlns:xlink="http://www.w3.org/1999/xlink" width="16.000000" height="16.000000" fill="none">
	<rect id="sun-svgrepo-com 1" width="16.000000" height="16.000000" x="0.000000" y="0.000000" />
	<path id="Форма 26" d="M8 11.6667C8.77432 11.6667 9.52877 11.4215 10.1552 10.9664C10.7817 10.5113 11.2479 9.86949 11.4872 9.13306C11.7265 8.39664 11.7265 7.60336 11.4872 6.86694C11.2479 6.13051 10.7817 5.48874 10.1552 5.0336C9.52877 4.57847 8.77432 4.33333 8 4.33333C7.22568 4.33333 6.47123 4.57847 5.84479 5.0336C5.21835 5.48874 4.75207 6.13051 4.51279 6.86694C4.27351 7.60336 4.27351 8.39664 4.51279 9.13306C4.75207 9.86949 5.21835 10.5113 5.84479 10.9664C6.47123 11.4215 7.22568 11.6667 8 11.6667ZM8 12.6667C8.9855 12.6667 9.94571 12.3547 10.743 11.7754C11.5403 11.1961 12.1337 10.3793 12.4383 9.44208C12.7428 8.50481 12.7428 7.49519 12.4383 6.55792C12.1337 5.62065 11.5403 4.80385 10.743 4.22459C9.94571 3.64532 8.9855 3.33333 8 3.33333C7.0145 3.33333 6.05429 3.64532 5.257 4.22459C4.45971 4.80385 3.86627 5.62065 3.56174 6.55792C3.2572 7.49519 3.2572 8.50481 3.56174 9.44208C3.86627 10.3793 4.45971 11.1961 5.257 11.7754C6.05429 12.3547 7.0145 12.6667 8 12.6667ZM16 8C16 8.08777 15.9769 8.17399 15.933 8.25C15.8891 8.32601 15.826 8.38913 15.75 8.43301C15.674 8.4769 15.5878 8.5 15.5 8.5L13.8333 8.5C13.7277 8.5 13.6249 8.46657 13.5394 8.40451C13.454 8.34244 13.3904 8.25493 13.3578 8.15451C13.3252 8.05409 13.3252 7.94591 13.3578 7.84549C13.3904 7.74507 13.454 7.65756 13.5394 7.59549C13.6249 7.53343 13.7277 7.5 13.8333 7.5L15.5 7.5C15.5878 7.5 15.674 7.5231 15.75 7.56699C15.826 7.61087 15.8891 7.67399 15.933 7.75C15.9769 7.82601 16 7.91223 16 8ZM2.66667 8C2.66667 8.08777 2.64356 8.17399 2.59968 8.25C2.5558 8.32601 2.49268 8.38913 2.41667 8.43301C2.34066 8.4769 2.25444 8.5 2.16667 8.5L0.5 8.5C0.39441 8.5 0.291531 8.46657 0.206107 8.40451C0.120684 8.34244 0.0571007 8.25493 0.0244718 8.15451C-0.00815725 8.05409 -0.00815725 7.94591 0.0244717 7.84549C0.0571007 7.74507 0.120684 7.65756 0.206107 7.59549C0.291531 7.53343 0.39441 7.5 0.5 7.5L2.16667 7.5C2.25444 7.5 2.34066 7.5231 2.41667 7.56699C2.49268 7.61087 2.5558 7.67399 2.59968 7.75C2.64356 7.82601 2.66667 7.91223 2.66667 8ZM13.6567 2.34333C13.7186 2.40538 13.7632 2.48264 13.7859 2.56736C13.8086 2.65207 13.8086 2.74126 13.7859 2.82598C13.7632 2.91069 13.7186 2.98795 13.6567 3.05L12.478 4.22867C12.4025 4.29901 12.3071 4.34427 12.2049 4.35825C12.1027 4.37223 11.9986 4.35424 11.907 4.30675C11.8154 4.25926 11.7407 4.18459 11.6933 4.09299C11.6458 4.00139 11.6278 3.89734 11.6418 3.79512C11.6557 3.69289 11.701 3.59749 11.7713 3.522L12.9493 2.34333C13.0114 2.28123 13.0887 2.23656 13.1735 2.21382C13.2584 2.19109 13.3477 2.19109 13.4325 2.21382C13.5173 2.23656 13.5946 2.28123 13.6567 2.34333L13.6567 2.34333ZM4.22867 11.7713C4.29064 11.8334 4.3352 11.9106 4.35788 11.9954C4.38056 12.0801 4.38056 12.1693 4.35788 12.254C4.3352 12.3387 4.29064 12.4159 4.22867 12.478L3.05 13.6567C2.98881 13.7223 2.91106 13.7703 2.82493 13.7956C2.73879 13.8209 2.64745 13.8225 2.56047 13.8003C2.4735 13.778 2.39411 13.7328 2.33064 13.6694C2.26717 13.6059 2.22195 13.5265 2.19974 13.4395C2.17753 13.3526 2.17914 13.2612 2.20441 13.1751C2.22967 13.0889 2.27766 13.0112 2.34333 12.95L3.52133 11.7713C3.5834 11.7092 3.66073 11.6646 3.74554 11.6418C3.83035 11.6191 3.91965 11.6191 4.00446 11.6418C4.08927 11.6646 4.1666 11.7092 4.22867 11.7713L4.22867 11.7713ZM8 0C8.08777 0 8.17399 0.0231031 8.25 0.0669873C8.32601 0.110871 8.38913 0.17399 8.43301 0.25C8.4769 0.32601 8.5 0.412232 8.5 0.5L8.5 2.16667C8.5 2.27226 8.46657 2.37514 8.40451 2.46056C8.34244 2.54598 8.25493 2.60957 8.15451 2.64219C8.05409 2.67482 7.94591 2.67482 7.84549 2.64219C7.74507 2.60957 7.65756 2.54598 7.59549 2.46056C7.53343 2.37514 7.5 2.27226 7.5 2.16667L7.5 0.5C7.5 0.412232 7.5231 0.32601 7.56699 0.25C7.61087 0.17399 7.67399 0.110871 7.75 0.0669873C7.82601 0.0231031 7.91223 0 8 0ZM8 13.3333C8.08777 13.3333 8.17399 13.3564 8.25 13.4003C8.32601 13.4442 8.38913 13.5073 8.43301 13.5833C8.4769 13.6593 8.5 13.7456 8.5 13.8333L8.5 15.5C8.5 15.6056 8.46657 15.7085 8.40451 15.7939C8.34244 15.8793 8.25493 15.9429 8.15451 15.9755C8.05409 16.0082 7.94591 16.0082 7.84549 15.9755C7.74507 15.9429 7.65756 15.8793 7.59549 15.7939C7.53343 15.7085 7.5 15.6056 7.5 15.5L7.5 13.8333C7.5 13.7456 7.5231 13.6593 7.56699 13.5833C7.61087 13.5073 7.67399 13.4442 7.75 13.4003C7.82601 13.3564 7.91223 13.3333 8 13.3333ZM2.34333 2.34333C2.40538 2.28136 2.48264 2.2368 2.56736 2.21412C2.65207 2.19144 2.74126 2.19144 2.82598 2.21412C2.91069 2.2368 2.98795 2.28136 3.05 2.34333L4.22867 3.522C4.29434 3.58319 4.34233 3.66094 4.36759 3.74707C4.39286 3.83321 4.39447 3.92455 4.37226 4.01153C4.35005 4.0985 4.30483 4.17789 4.24136 4.24136C4.17789 4.30483 4.0985 4.35005 4.01153 4.37226C3.92455 4.39447 3.83321 4.39286 3.74707 4.36759C3.66094 4.34233 3.58319 4.29434 3.522 4.22867L2.34333 3.05C2.28136 2.98795 2.2368 2.91069 2.21412 2.82598C2.19144 2.74126 2.19144 2.65207 2.21412 2.56736C2.2368 2.48264 2.28136 2.40538 2.34333 2.34333L2.34333 2.34333ZM11.7713 11.7713C11.8334 11.7094 11.9106 11.6648 11.9954 11.6421C12.0801 11.6194 12.1693 11.6194 12.254 11.6421C12.3387 11.6648 12.4159 11.7094 12.478 11.7713L13.6567 12.95C13.727 13.0255 13.7723 13.1209 13.7862 13.2231C13.8002 13.3253 13.7822 13.4294 13.7347 13.521C13.6873 13.6126 13.6126 13.6873 13.521 13.7347C13.4294 13.7822 13.3253 13.8002 13.2231 13.7862C13.1209 13.7723 13.0255 13.727 12.95 13.6567L11.7713 12.4787C11.7092 12.4166 11.6646 12.3393 11.6418 12.2545C11.6191 12.1697 11.6191 12.0803 11.6418 11.9955C11.6646 11.9107 11.7092 11.8334 11.7713 11.7713L11.7713 11.7713Z" fill="rgb(255,255,255)" fill-rule="evenodd" />
</svg>
