<svg viewBox="0 0 20 21" xmlns="http://www.w3.org/2000/svg" xmlns:xlink="http://www.w3.org/1999/xlink" width="20.000000" height="21.000000" fill="none">
	<rect id="chart.js" width="20.000000" height="21.000000" x="0.000000" y="0.000000" fill="rgb(255,255,255)" fill-opacity="0" />
	<path id="Vector" d="M18 10.6258C15.1059 10.6809 15.7087 12.4573 13.6691 12.9066C11.5972 13.363 11.2701 8 9.19865 8C7.12695 8 6.66803 13.2095 4.07401 16.7859L4 16.8872L9.56157 20L18 15.2766L18 10.6258Z" fill="rgb(54,162,235)" fill-rule="nonzero" />
	<path id="Vector" d="M18 10.5643C17.0472 9.37141 16.401 8 15.0107 8C12.5503 8 13.1977 11.9158 10.4785 11.9158C7.75903 11.9158 7.47313 7.70382 4.39245 11.6631C3.41081 12.9247 2.62067 14.3314 2 15.6624L9.70156 20L18 15.3263L18 10.5643Z" fill="rgb(255,206,86)" fill-rule="nonzero" />
	<path id="Vector" d="M1 11.7945C1.95633 9.14546 2.36906 7 4.19479 7C6.97997 7 7.64293 14.8267 10.0306 14.0304C12.4179 13.2346 12.1526 8.98955 15.8664 8.98955C16.5733 8.98955 17.2951 9.42274 18 10.1234L18 15.0918L9.50019 20L1.00013 15.0918L1 11.7945Z" opacity="0.800000012" fill="rgb(254,97,132)" fill-rule="nonzero" />
	<path id="Vector" d="M10 21L1 15.7501L1 5.25L10 0L19 5.25L19 15.75L10 21ZM2.05739 15.1333L10 19.7665L17.9426 15.1333L17.9426 5.86687L10 1.23362L2.05739 5.86687L2.05739 15.1333Z" fill="rgb(231,233,237)" fill-rule="nonzero" />
</svg>
