<svg viewBox="0 0 21 21" xmlns="http://www.w3.org/2000/svg" xmlns:xlink="http://www.w3.org/1999/xlink" width="21.000000" height="21.000000" fill="none">
	<rect id="css" width="21.000000" height="21.000000" x="0.000000" y="0.000000" fill="rgb(255,255,255)" fill-opacity="0" />
	<g id="layer1">
		<path id="polygon2989" d="M19.7636 0L18.0767 18.8978L10.4939 21L2.93196 18.9008L1.24683 0L19.7636 0Z" fill="rgb(38,77,228)" fill-rule="nonzero" />
		<path id="polygon2991" d="M10.5052 19.3932L16.6325 17.6945L18.0741 1.54541L10.5052 1.54541L10.5052 19.3932Z" fill="rgb(41,101,241)" fill-rule="nonzero" />
		<path id="polygon2993" d="M10.5052 8.55542L5.10999 8.55542L5.31775 10.8735L10.5052 10.8735L10.5052 8.55542Z" fill="rgb(235,235,235)" fill-rule="nonzero" />
		<path id="polygon2995" d="M10.5052 3.86359L10.4972 3.86359L4.6925 3.86359L4.90323 6.18171L10.5052 6.18171L10.5052 3.86359Z" fill="rgb(235,235,235)" fill-rule="nonzero" />
		<path id="polygon2997" d="M5.42139 12.0326L5.74615 15.6723L10.4946 16.9905L10.5053 16.9876L10.5053 14.5758L10.4951 14.5785L7.91344 13.8814L7.7484 12.0326L6.4939 12.0326L5.42139 12.0326Z" fill="rgb(235,235,235)" fill-rule="nonzero" />
		<path id="polygon3005" d="M13.3517 10.8736L13.0826 13.88L10.4972 14.5778L10.4972 16.9895L15.2494 15.6724L15.2843 15.2808L15.829 9.17796L15.8856 8.55548L16.3041 3.86359L10.4972 3.86359L10.4972 6.18171L13.7636 6.18171L13.5527 8.55548L10.4972 8.55548L10.4972 10.8736L13.3517 10.8736Z" fill="rgb(255,255,255)" fill-rule="nonzero" />
	</g>
</svg>
