<svg viewBox="0 0 27 27" xmlns="http://www.w3.org/2000/svg" xmlns:xlink="http://www.w3.org/1999/xlink" width="27.000000" height="27.000000" fill="none">
	<defs>
		<linearGradient id="paint_linear_2" x1="1.31477284" x2="13.257741" y1="20.0208645" y2="22.0268669" gradientUnits="userSpaceOnUse">
			<stop stop-color="rgb(137,196,66)" offset="0" stop-opacity="1" />
			<stop stop-color="rgb(116,184,68)" offset="1" stop-opacity="1" />
		</linearGradient>
		<linearGradient id="paint_linear_3" x1="0.535309911" x2="10.8405952" y1="18.7022247" y2="20.4340363" gradientUnits="userSpaceOnUse">
			<stop stop-color="rgb(116,184,68)" offset="0" stop-opacity="1" />
			<stop stop-color="rgb(74,150,52)" offset="1" stop-opacity="1" />
		</linearGradient>
		<linearGradient id="paint_linear_4" x1="-101.368851" x2="-120.634384" y1="-372.68045" y2="-366.261749" gradientUnits="userSpaceOnUse">
			<stop stop-color="rgb(193,234,113)" offset="0" stop-opacity="1" />
			<stop stop-color="rgb(172,218,85)" offset="1" stop-opacity="1" />
		</linearGradient>
		<linearGradient id="paint_linear_5" x1="-101.460144" x2="-118.247269" y1="-371.478516" y2="-365.886292" gradientUnits="userSpaceOnUse">
			<stop stop-color="rgb(172,218,85)" offset="0" stop-opacity="1" />
			<stop stop-color="rgb(137,196,66)" offset="1" stop-opacity="1" />
		</linearGradient>
	</defs>
	<rect id="фрейм 2" width="27.000000" height="27.000000" x="0.000000" y="0.000000" />
	<path id="Форма 22" d="M1.45119 11.9677C1.7384 12.3054 7.38202 14.1981 9.34323 16.4966C11.3045 18.7952 12.162 20.848 11.885 22.8212C11.6081 24.7945 10.4079 24.7625 9.88482 25.4802C9.3617 26.1978 8.64163 27.0951 7.25072 26.9919C5.43209 26.868 3.55601 25.9541 2.20101 22.7789C0.846012 19.6037 0.94961 16.6185 1.05834 14.9622C1.16707 13.3059 1.44812 11.9708 1.44812 11.9708L1.45119 11.9677Z" fill="url(#paint_linear_2)" fill-rule="nonzero" />
	<path id="Форма 23" d="M1.11279 13.0312L9.56488 25.7135L9.17511 26.1513" fill="url(#paint_linear_3)" fill-rule="nonzero" />
	<path id="Форма 24" d="M22.6984 0.00309902C22.3055 0.643303 13.358 5.28788 10.6726 9.64747C7.98726 14.0071 7.22103 17.4404 8.19446 20.6672C9.16788 23.8941 11.0286 23.7485 12.0892 24.812C13.1498 25.8756 14.5889 27.1684 16.8876 26.647C19.8971 25.9634 22.7979 23.9416 24.2401 18.2727C25.6823 12.6038 24.7366 7.64218 24.1375 4.90066C23.5385 2.15914 22.7076 0 22.7076 0L22.6984 0.00309902Z" fill="url(#paint_linear_4)" fill-rule="nonzero" />
	<path id="Форма 25" d="M22.5456 0.970642L11.6953 24.3866L12.3313 25.0299" fill="url(#paint_linear_5)" fill-rule="nonzero" />
</svg>
