<svg viewBox="0 0 187 90" xmlns="http://www.w3.org/2000/svg" xmlns:xlink="http://www.w3.org/1999/xlink" width="187.000000" height="90.000000" fill="none">
	<rect id="github-logo-vector 1" width="187.000000" height="90.000000" x="0.000000" y="0.000000" />
	<g id="Group 1">
		<path id="Vector 1" d="M19.9078 44.1214C16.2717 43.7054 12.1992 42.0622 9.16568 39.8158C0.563683 33.4094 -2.42832 21.6158 2.10124 12.027C3.32713 9.46861 4.44913 7.82541 6.48535 5.70381C9.83057 2.20941 15.6276 -0.827386 16.7496 0.295813C16.9158 0.462213 16.9989 1.33581 16.9989 2.83341L16.9989 5.14221L14.6718 5.14221C11.4097 5.14221 10.4331 5.68301 9.26957 8.15821C8.83324 9.07341 8.18913 9.92621 7.25413 10.8414C5.98668 12.0894 5.92435 12.1726 6.29835 12.443C6.81779 12.8382 7.37879 12.7966 8.37613 12.339C9.16568 11.9854 9.53968 11.6318 11.1396 9.63501C11.5136 9.15661 12.1992 8.59501 12.6356 8.36621C14.0277 7.65901 17.2067 7.92941 17.2067 8.76141C17.2067 8.96941 17.4768 9.65581 17.7885 10.3006L18.391 11.4862L17.643 11.611C16.4795 11.7982 14.0692 12.5262 13.2589 12.9422C11.2019 14.003 9.62279 15.9582 8.85402 18.4334C8.48002 19.619 8.37613 20.3886 8.3969 22.4062C8.41768 25.2142 8.64624 26.0878 9.85135 27.835C10.5578 28.875 10.5786 28.9374 10.3292 29.8734C10.0383 31.059 10.1838 33.139 10.6409 34.2414L10.9733 35.0526L11.9707 34.9278C12.5317 34.8446 13.8615 34.3246 15.0873 33.7214L17.2275 32.6398L19.2429 32.9934C21.57 33.3678 23.7725 33.4094 25.7256 33.0974C26.4736 32.9934 27.4086 32.8478 27.8241 32.7646C28.4059 32.6814 28.7799 32.7854 29.6526 33.3262C30.8992 34.0958 33.2471 34.9694 34.099 34.9902C34.7639 34.9902 34.9509 34.6158 35.2833 32.6398C35.4288 31.7662 35.408 30.955 35.2626 30.1022C35.0548 28.8334 35.0548 28.8334 35.782 27.731C36.8625 26.1294 37.2365 24.6942 37.2157 22.0942C37.1949 20.3054 37.091 19.5982 36.6547 18.267C35.3249 14.3566 32.8316 12.4846 27.741 11.5902C26.9722 11.4654 26.9515 11.4446 27.2839 11.0702C27.4709 10.8622 27.8033 10.2174 28.0319 9.63501C28.3643 8.71981 28.4267 8.03341 28.4267 4.53901C28.4267 0.108613 28.4682 -0.0369865 29.6733 0.00461348C30.4629 0.0254135 33.8081 1.60621 35.4703 2.75021C41.953 7.13901 45.88 15.1262 45.3813 22.8638C45.0281 28.4382 42.6595 33.6798 38.7325 37.5902C34.9301 41.3758 30.4213 43.539 25.2477 44.1214C23.0037 44.371 22.1518 44.371 19.9078 44.1214Z" fill="rgb(0,0,0)" fill-rule="nonzero" transform="matrix(1,0,0,-1,4,67.3086)" />
		<path id="Vector 2" d="M9.22044 31.512C3.3611 30.056 0.389878 25.4176 0.0366553 17.2432C-0.316567 9.2768 1.88588 3.9312 6.51932 1.4976C8.74255 0.3328 10.5294 0 14.2071 0C17.6978 0.0208 19.4431 0.3744 21.8949 1.5392L23.2454 2.184L23.2454 10.192L23.2454 18.1792L17.9055 18.1376L12.5449 18.0752L12.4825 15.392C12.441 13.3744 12.5033 12.6672 12.6903 12.5216C12.8358 12.4384 13.8331 12.3552 14.8928 12.3552L16.8043 12.3552L16.8043 9.3392L16.8043 6.3232L16.2433 6.1984C15.3291 5.9696 12.1917 6.0112 11.2774 6.2816C9.32432 6.8432 7.82832 8.6528 7.14266 11.232C6.64399 13.1456 6.51932 16.9104 6.89332 19.0528C7.62055 23.2544 9.38666 25.1264 13.1267 25.688C14.9759 25.9584 18.1341 25.7088 19.7132 25.1472C20.5443 24.856 20.669 24.856 20.8768 25.1264C21.1884 25.5632 22.0819 29.9312 21.9364 30.3056C21.791 30.68 19.6717 31.408 17.8432 31.6992C15.6615 32.032 10.9034 31.928 9.22044 31.512Z" fill="rgb(0,0,0)" fill-rule="nonzero" transform="matrix(1,0,0,-1,64.6577,62.5615)" />
		<path id="Vector 3" d="M0.145444 30.264C0.0623333 30.1808 0 23.3376 0 15.0592L0 0L3.179 0.0624L6.33722 0.1248L6.39955 6.6352L6.44111 13.1248L10.8044 13.1248L15.1678 13.1248L15.2093 6.6352L15.2717 0.1248L18.4507 0.0624L21.6089 0L21.6089 15.2048L21.6089 30.3888L18.513 30.3888C15.8742 30.3888 15.3963 30.3472 15.2924 30.056C15.2301 29.8688 15.1678 27.3104 15.1678 24.336L15.1678 18.9488L10.8044 18.9488L6.44111 18.9488L6.39955 24.6272L6.33722 30.2848L3.30367 30.3472C1.64144 30.368 0.228556 30.3264 0.145444 30.264Z" fill="rgb(0,0,0)" fill-rule="nonzero" transform="matrix(1,0,0,-1,116.785,62.0833)" />
		<path id="Vector 4" d="M0.070125 30.6384C0.00779166 30.4928 -0.0129861 23.6704 0.00779166 15.496L0.070125 0.624L2.39724 0.5616L4.72435 0.4992L4.86979 1.248C4.93212 1.6432 5.03601 1.976 5.07757 1.976C5.1399 1.976 5.53468 1.7472 5.95023 1.456C7.52935 0.416 9.02534 0.0208 11.4979 0C14.4691 0 15.6535 0.3744 17.1287 1.8512C18.8948 3.6192 19.6843 6.4688 19.7051 11.0656C19.7259 17.576 17.7936 20.9456 13.6172 21.7152C12.0797 21.9856 9.4409 21.6736 7.82023 21.0288L6.61512 20.5296L6.61512 25.376C6.61512 28.0592 6.55279 30.368 6.49046 30.5552C6.38657 30.8464 5.8879 30.888 3.2699 30.888C0.963569 30.888 0.132458 30.8256 0.070125 30.6384ZM11.7265 15.9744C12.0173 15.7872 12.4537 15.2672 12.703 14.7888C13.1186 14.0192 13.1601 13.624 13.1601 10.712C13.1601 7.072 12.89 6.0944 11.7057 5.512C10.8122 5.0752 8.54746 5.1584 7.36312 5.6992L6.40735 6.1152L6.40735 10.816L6.40735 15.5168L7.17612 15.8288C8.94223 16.5776 10.7291 16.64 11.7265 15.9744Z" fill="rgb(0,0,0)" fill-rule="nonzero" transform="matrix(1,0,0,-1,163.36,62.5824)" />
		<path id="Vector 5" d="M2.71329 7.07249C-0.42416 6.30289 -1.00594 1.83089 1.84062 0.374893C2.48473 0.0212926 2.94184 -0.0411074 3.89762 0.0212926C5.35207 0.125293 6.05852 0.582893 6.72341 1.85169C7.28441 2.97489 7.30518 4.11889 6.78574 5.13809C6.28707 6.11569 5.74685 6.59409 4.74951 6.96849C3.87685 7.28049 3.62751 7.28049 2.71329 7.07249Z" fill="rgb(0,0,0)" fill-rule="nonzero" transform="matrix(1,0,0,-1,90.6963,39.5781)" />
		<path id="Vector 6" d="M3.37688 24.0682L3.31454 21.0106L1.75621 20.6154C0.904321 20.4074 0.15632 20.1994 0.114765 20.137C-0.0514575 19.9706 -0.0306797 16.5594 0.135543 16.1226C0.280987 15.7274 0.447209 15.6858 1.8601 15.6858L3.41843 15.6858L3.41843 10.5482C3.41843 4.43304 3.58465 3.55944 4.99754 1.97864C6.38966 0.439438 7.55321 0.0234381 10.4829 0.00263809C11.9789 -0.0181619 13.1632 0.0858381 13.6619 0.252238L14.4307 0.543438L14.4307 2.91464L14.4307 5.28584L12.9762 5.28584C11.3971 5.28584 10.4413 5.61864 10.0673 6.30504C9.94266 6.55464 9.85955 8.50984 9.85955 11.193L9.85955 15.665L12.1035 15.7274L14.3268 15.7898L14.3891 18.4522L14.4514 21.0938L12.1659 21.0938L9.88032 21.0938L9.81799 24.0682L9.75566 27.0218L6.59743 27.0842L3.43921 27.1466L3.37688 24.0682Z" fill="rgb(0,0,0)" fill-rule="nonzero" transform="matrix(1,0,0,-1,99.6528,62.5642)" />
		<path id="Vector 7" d="M0.070125 20.3178C0.00779166 20.1722 -0.0129861 15.5546 0.00779166 10.0634L0.070125 0.0794422L3.20757 0.0170422C6.32423 -0.0245578 6.36579 -0.0245578 6.49045 0.433042C6.65668 1.05704 6.65668 19.8186 6.49045 20.2346C6.38657 20.5258 5.8879 20.5674 3.2699 20.5674C0.963569 20.5674 0.132458 20.505 0.070125 20.3178Z" fill="rgb(0,0,0)" fill-rule="nonzero" transform="matrix(1,0,0,-1,91.0537,62.0378)" />
		<path id="Vector 8" d="M0.0631754 20.9094C0.000842065 20.7222 -0.0199357 17.103 0.0216198 12.839C0.104731 5.39263 0.125509 5.03903 0.561842 3.89503C1.14362 2.45983 1.66306 1.77343 2.70195 1.10783C5.17451 -0.452171 9.9534 -0.348171 13.2571 1.31583C13.8388 1.60703 14.3375 1.85663 14.3791 1.85663C14.4414 1.85663 14.5245 1.56543 14.6076 1.23263L14.7323 0.587828L16.8516 0.650228L18.9917 0.712628L19.0541 10.967L19.0956 21.2214L15.9374 21.159L12.7584 21.0966L12.6961 13.6918L12.6545 6.30783L11.865 5.93343C11.0131 5.51743 8.85217 5.26783 8.00029 5.47583C7.7094 5.53823 7.29384 5.85023 7.10684 6.16223C6.7744 6.66143 6.71206 7.51423 6.62895 13.9206L6.52506 21.0966L3.34606 21.159C0.707286 21.2006 0.167064 21.159 0.0631754 20.9094Z" fill="rgb(0,0,0)" fill-rule="nonzero" transform="matrix(1,0,0,-1,141.322,62.671)" />
	</g>
</svg>
