<svg viewBox="0 0 144 60" xmlns="http://www.w3.org/2000/svg" xmlns:xlink="http://www.w3.org/1999/xlink" width="144.000000" height="60.000000" fill="none">
	<rect id="html 1" width="144.000000" height="60.000000" x="0.000000" y="0.000000" />
	<path id="Vector 9" d="M8 19L14.7877 19L14.7877 25.9298L20.9954 25.9298L20.9954 19L27.7831 19L27.7831 39.9865L20.9954 39.9865L20.9954 32.9705L14.7877 32.9705L14.7877 39.9865L8 39.9865L8 19L8 19ZM36.7071 25.9606L30.7208 25.9606L30.7208 19.0012L49.4595 19.0012L49.4595 25.9606L43.4816 25.9606L43.4816 39.9889L36.694 39.9889L36.694 25.9606L36.7071 25.9606ZM52.4342 19L59.5112 19L63.8649 26.3853L68.2137 19L75.2812 19L75.2812 39.9865L68.5222 39.9865L68.5222 29.5831L63.8542 37.0459L63.7375 37.0459L59.0861 29.5843L59.0861 39.9877L52.4461 39.9877L52.4342 19ZM78.6679 19L85.4556 19L85.4556 33.0628L95 33.0628L95 40L78.6691 40L78.6679 19Z" fill="rgb(0,0,0)" fill-rule="nonzero" />
	<path id="Vector 10" d="M99 8L136 8L132.629 46.6952L117.478 51L102.368 46.7012L99 8Z" fill="rgb(228,77,38)" fill-rule="nonzero" />
	<path id="Vector 11" d="M130.141 44.4788L133 11L118 11L118 48L130.141 44.4788Z" fill="rgb(241,101,41)" fill-rule="nonzero" />
	<path id="Vector 12" d="M111.656 25.6492L111.218 20.7668L118 20.7668L118 16L106 16L107.291 30.4173L118 30.4173L118 25.6504L111.656 25.6492ZM107.491 32.8019L108.162 40.2892L117.966 43L117.988 42.994L117.988 38.0346L117.967 38.0406L112.65 36.5961L112.309 32.7922L109.72 32.7922L107.491 32.8019Z" fill="rgb(235,235,235)" fill-rule="nonzero" />
	<path id="Vector 13" d="M128.007 26.9382L128.124 25.6576L117 25.6576L117 30.4237L122.893 30.4237L122.337 36.6066L117 38.0412L117 43L126.812 40.2919L126.884 39.4855L128.007 26.9382ZM117.011 20.7782L128.571 20.7782L129 16L117.011 16L117.011 20.7542L117.011 20.7782Z" fill="rgb(255,255,255)" fill-rule="nonzero" />
</svg>
