<svg width="23" height="21" viewBox="0 0 23 21" fill="none" xmlns="http://www.w3.org/2000/svg">
<g clip-path="url(#clip0_35_7)">
<path d="M11.5 12.6037C12.6322 12.6037 13.55 11.6619 13.55 10.5C13.55 9.33812 12.6322 8.39624 11.5 8.39624C10.3678 8.39624 9.45 9.33812 9.45 10.5C9.45 11.6619 10.3678 12.6037 11.5 12.6037Z" fill="#61DAFB"/>
<path d="M11.5 14.8101C17.5751 14.8101 22.5 12.8804 22.5 10.5C22.5 8.11959 17.5751 6.18988 11.5 6.18988C5.42487 6.18988 0.5 8.11959 0.5 10.5C0.5 12.8804 5.42487 14.8101 11.5 14.8101Z" stroke="#61DAFB"/>
<path d="M7.86269 12.6551C10.9003 18.0542 14.9912 21.4663 17 20.2761C19.0088 19.0858 18.1749 13.7441 15.1373 8.34495C12.0997 2.94579 8.00882 -0.466239 5.99999 0.723967C3.99116 1.91417 4.82512 7.25591 7.86269 12.6551Z" stroke="#61DAFB"/>
<path d="M7.86269 8.34495C4.82512 13.7441 3.99116 19.0858 5.99999 20.2761C8.00882 21.4663 12.0997 18.0542 15.1373 12.6551C18.1749 7.25591 19.0088 1.91418 17 0.72397C14.9912 -0.466236 10.9003 2.94579 7.86269 8.34495Z" stroke="#61DAFB"/>
</g>
<defs>
<clipPath id="clip0_35_7">
<rect width="23" height="21" fill="white"/>
</clipPath>
</defs>
</svg>
