<svg viewBox="0 0 21 21" xmlns="http://www.w3.org/2000/svg" xmlns:xlink="http://www.w3.org/1999/xlink" width="21.000000" height="21.000000" fill="none">
	<rect id="scss" width="21.000000" height="21.000000" x="0.000000" y="0.000000" fill="rgb(255,255,255)" fill-opacity="0" />
	<path id="Vector" d="M17.85 0L3.15 0C1.4103 0 0 1.4103 0 3.15L0 17.85C0 19.5897 1.4103 21 3.15 21L17.85 21C19.5897 21 21 19.5897 21 17.85L21 3.15C21 1.4103 19.5897 0 17.85 0Z" fill="rgb(204,102,153)" fill-rule="evenodd" />
	<path id="Vector" d="M10.5821 3.60937C6.64458 4.96289 4.10161 7.71094 4.34771 9.35156C4.5938 10.9922 7.05474 12.3047 8.16216 13.166C6.72661 13.9043 4.92193 15.0117 4.96294 16.4473C5.04497 18.416 7.17778 17.8008 8.08013 17.2266C8.98247 16.6523 9.88482 15.0527 9.3106 13.3711C10.5821 13.043 11.6895 13.4531 12.0176 13.6992C13.2891 14.6016 12.6329 15.627 12.1817 15.791C11.7305 15.9551 12.0176 16.0371 12.3047 15.9551C12.5918 15.873 13.2071 15.4629 13.2071 14.7656C13.2071 13.002 11.3204 12.1816 8.98247 12.7969C7.62896 11.3613 5.78325 10.7051 5.86528 9.14648C5.9063 8.57227 6.11138 7.0957 9.76177 5.25C13.4122 3.4043 15.9961 4.14258 15.668 5.82422C15.1758 8.36719 10.7461 10.0898 9.18755 8.61328C9.10552 8.44922 8.81841 8.32617 8.98247 8.77734C9.80278 10.8281 16.4473 9.88477 16.7344 5.53711C16.8165 3.24023 13.4942 2.625 10.5821 3.60937ZM7.05474 16.7344C6.02935 17.0625 6.07036 16.4062 6.11138 16.1602C6.23443 15.4629 6.80864 14.6016 8.5313 13.7402C9.02349 15.2988 7.91607 16.4883 7.05474 16.7344Z" fill="rgb(255,255,255)" fill-rule="nonzero" />
</svg>
