<svg viewBox="0 0 21 21" xmlns="http://www.w3.org/2000/svg" xmlns:xlink="http://www.w3.org/1999/xlink" width="21.000000" height="21.000000" fill="none">
	<defs>
		<linearGradient id="paint_linear_0" x1="717.748108" x2="717.748108" y1="1.56036377" y2="1945.52148" gradientUnits="userSpaceOnUse">
			<stop stop-color="rgb(0,128,255)" offset="0" stop-opacity="1" />
			<stop stop-color="rgb(0,183,255)" offset="1" stop-opacity="1" />
		</linearGradient>
		<linearGradient id="paint_linear_1" x1="712.672852" x2="712.672852" y1="0" y2="1947.24939" gradientUnits="userSpaceOnUse">
			<stop stop-color="rgb(0,183,255)" offset="0" stop-opacity="1" />
			<stop stop-color="rgb(0,128,255)" offset="1" stop-opacity="1" />
		</linearGradient>
	</defs>
	<rect id="swiper" width="21.000000" height="21.000000" x="0.000000" y="0.000000" fill="rgb(255,255,255)" fill-opacity="0" />
	<g id="Group">
		<path id="Vector" d="M16.0103 1.56036C19.0047 3.40999 21 6.72196 21 10.5C21 16.299 16.299 21 10.5 21C9.2354 21 8.02302 20.7764 6.90056 20.3663L6.78064 20.3217L6.97591 20.259L7.22693 20.1766L7.35077 20.1353L7.4735 20.0938L7.71565 20.0104L7.95336 19.9264L8.18664 19.8419L8.41548 19.7568L8.52824 19.7141L8.75045 19.6281C8.9851 19.5362 9.2122 19.4432 9.43174 19.3493L9.59498 19.2787L9.79505 19.1898C9.88298 19.1502 9.96961 19.1104 10.0549 19.0704L10.1819 19.0104L10.3687 18.9197L10.4605 18.8742L10.5511 18.8284L10.7291 18.7366C12.2229 17.953 13.2379 17.1017 13.7768 16.1683C14.9185 14.1908 13.9214 12.0774 11.0589 9.92298L10.8259 9.74833L10.6844 9.63981L10.547 9.53212L10.4138 9.42525L10.2846 9.31919L10.2215 9.26647L10.1594 9.21395L10.0384 9.10953L9.95026 9.03174L9.8644 8.9544L9.75344 8.85198L9.6465 8.75035L9.54355 8.64952L9.49358 8.5994L9.4446 8.54948L9.34961 8.45022C8.21805 7.24732 7.96537 6.21756 8.47908 5.32778C8.74055 4.8749 9.19385 4.42966 9.83819 3.99604L9.91643 3.94406L10.0396 3.86478C10.0953 3.82961 10.1523 3.79451 10.2106 3.7595L10.2989 3.70704L10.435 3.62859L10.5753 3.55042L10.6834 3.49199L10.7939 3.43372L10.9449 3.3563C11.0598 3.29834 11.1784 3.24064 11.3005 3.18321L11.4238 3.12587L11.592 3.0497L11.6777 3.01174L11.8523 2.93606L11.9412 2.89835L12.1222 2.82318L12.2143 2.78572L12.4017 2.71107L12.497 2.67387L12.6908 2.59975L12.8889 2.52598L12.9895 2.48924L13.194 2.41602L13.4028 2.34318L13.6158 2.27072L13.7239 2.23464L13.9434 2.16276L14.1671 2.09127L14.395 2.02018L14.6272 1.9495L14.8637 1.87922L15.1653 1.79196L15.4735 1.70536L15.8522 1.60233L16.0103 1.56036Z" fill="url(#paint_linear_0)" fill-rule="nonzero" />
		<path id="Vector" d="M10.5 0C11.7769 0 13.0006 0.227929 14.1325 0.645322L14.2535 0.690766L14.1768 0.713978L13.8028 0.82926L13.6803 0.867985L13.4387 0.945888L13.2015 1.0244L12.9687 1.10352L12.7403 1.18326L12.5163 1.26362L12.4059 1.30404L12.1349 1.40578L11.8707 1.50851L11.6643 1.59142L11.5627 1.63312L11.3629 1.71701C9.32078 2.58726 7.98243 3.56304 7.34244 4.67155C6.22541 6.6063 7.23857 8.69198 10.1014 10.8459L10.3343 11.0205L10.4758 11.1291L10.6131 11.2369L10.6802 11.2905L10.8113 11.3972L10.907 11.4767L11.0003 11.5557L11.1212 11.6605L11.1801 11.7126L11.2948 11.8162C11.3574 11.8735 11.4182 11.9306 11.4771 11.9872L11.564 12.072L11.6891 12.1981L11.808 12.3231C12.9347 13.5344 13.1756 14.5847 12.6401 15.5121C12.2937 16.1122 11.6323 16.7029 10.6573 17.2763L10.5678 17.3284L10.4228 17.4106L10.2734 17.4925C10.1892 17.5379 10.1031 17.5833 10.0149 17.6285L9.88112 17.6962L9.71665 17.7772L9.54786 17.8579L9.37477 17.9384L9.2866 17.9785L9.10704 18.0586L8.92317 18.1384L8.73498 18.2178L8.63928 18.2574L8.44463 18.3365L8.3457 18.3759L8.24569 18.4152L8.04243 18.4936L7.83487 18.5717L7.62301 18.6494L7.40685 18.7269L7.18638 18.804L7.07454 18.8424L6.84762 18.919L6.73255 18.9571L6.49919 19.0332L6.26153 19.1089L5.95841 19.2031L5.64859 19.2966L5.39589 19.3711L5.04323 19.4725C2.01915 17.6294 0 14.3005 0 10.5C0 4.70101 4.70101 0 10.5 0Z" fill="url(#paint_linear_1)" fill-rule="nonzero" />
	</g>
</svg>
