<svg viewBox="0 0 21 21" xmlns="http://www.w3.org/2000/svg" xmlns:xlink="http://www.w3.org/1999/xlink" width="21.000000" height="21.000000" fill="none">
	<rect id="api 1" width="21.000000" height="21.000000" x="0.000000" y="0.000000" />
	<path id="Форма 10" d="M8.32605 9.36981L7.89539 10.5529L8.76685 10.5529L8.32605 9.36981Z" fill="rgb(255,255,255)" fill-rule="nonzero" />
	<path id="Форма 11" d="M15.7461 4.46021L5.28099 4.46021C4.86299 4.46021 4.521 4.8022 4.521 5.2202L4.521 15.6853C4.521 16.1033 4.86299 16.4453 5.28099 16.4453L15.7461 16.4453C16.1641 16.4453 16.5061 16.1033 16.5061 15.6853L16.5061 5.2202C16.5061 4.79967 16.1641 4.46021 15.7461 4.46021L15.7461 4.46021ZM13.2432 8.62751L13.8867 8.62751L13.8867 11.8144L13.2432 11.8144L13.2432 8.62751ZM10.2919 8.62751L11.3255 8.62751C11.7182 8.62751 11.9715 8.64271 12.0905 8.67565C12.2729 8.72378 12.4249 8.82764 12.5491 8.98724C12.6732 9.14684 12.734 9.35457 12.734 9.60791C12.734 9.80297 12.6985 9.96764 12.6276 10.1019C12.5567 10.2362 12.4655 10.34 12.3565 10.416C12.2476 10.492 12.1361 10.5427 12.0221 10.568C11.8676 10.5984 11.6472 10.6136 11.3534 10.6136L10.9328 10.6136L10.9328 11.8144L10.2919 11.8144L10.2919 8.62751ZM7.99417 8.62751L8.67564 8.62751L9.9499 11.8144L9.2507 11.8144L8.97203 11.0899L7.69778 11.0899L7.43431 11.8144L6.75032 11.8144L7.99417 8.62751L7.99417 8.62751ZM13.798 15.5511L6.30445 15.5511C5.81299 15.5511 5.41526 15.1533 5.41526 14.6619L5.41526 7.18859C5.41526 7.04926 5.52926 6.93526 5.66859 6.93526C5.80792 6.93526 5.92192 7.04926 5.92192 7.18859L5.92192 14.6619C5.92192 14.8721 6.09419 15.0444 6.30445 15.0444L13.798 15.0444C13.9373 15.0444 14.0513 15.1584 14.0513 15.2977C14.0513 15.4371 13.9399 15.5511 13.798 15.5511Z" fill="rgb(255,255,255)" fill-rule="nonzero" />
	<path id="Форма 12" d="M11.7966 10.0208C11.8828 9.98788 11.9486 9.93468 11.9968 9.86375C12.0449 9.79281 12.0702 9.70921 12.0702 9.61548C12.0702 9.49895 12.0373 9.40268 11.9689 9.32922C11.9005 9.25322 11.8144 9.20762 11.7105 9.18735C11.6345 9.17215 11.48 9.16455 11.2469 9.16455L10.9353 9.16455L10.9353 10.0689L11.2874 10.0689C11.5408 10.0715 11.7105 10.0537 11.7966 10.0208L11.7966 10.0208Z" fill="rgb(255,255,255)" fill-rule="nonzero" />
	<path id="Форма 13" d="M13.798 15.0444L6.30448 15.0444C6.09421 15.0444 5.92195 14.8721 5.92195 14.6619L5.92195 7.18857C5.92195 7.04924 5.80795 6.93524 5.66861 6.93524C5.52928 6.93524 5.41528 7.04924 5.41528 7.18857L5.41528 14.6619C5.41528 15.1533 5.81301 15.5511 6.30448 15.5511L13.798 15.5511C13.9374 15.5511 14.0514 15.4371 14.0514 15.2977C14.0514 15.1584 13.9399 15.0444 13.798 15.0444Z" fill="rgb(6,243,255)" fill-rule="nonzero" />
	<path id="Форма 14" d="M19.2852 7.67245C19.5639 7.67245 19.7919 7.44445 19.7919 7.16579C19.7919 6.88712 19.5639 6.65912 19.2852 6.65912L17.5195 6.65912L17.5195 5.2202C17.5195 4.24234 16.7241 3.44688 15.7462 3.44688L15.0419 3.44688L15.0419 1.74195C15.0419 1.46329 14.8139 1.23529 14.5353 1.23529C14.2566 1.23529 14.0286 1.46329 14.0286 1.74195L14.0286 3.44688L12.8506 3.44688L12.8506 1.74195C12.8506 1.46329 12.6226 1.23529 12.344 1.23529C12.0653 1.23529 11.8373 1.46329 11.8373 1.74195L11.8373 3.44688L10.6593 3.44688L10.6593 1.74195C10.6593 1.46329 10.4313 1.23529 10.1526 1.23529C9.87397 1.23529 9.64597 1.46329 9.64597 1.74195L9.64597 3.44688L8.46797 3.44688L8.46797 1.74195C8.46797 1.46329 8.23998 1.23529 7.96131 1.23529C7.68265 1.23529 7.45465 1.46329 7.45465 1.74195L7.45465 3.44688L5.28106 3.44688C4.3032 3.44688 3.50774 4.24234 3.50774 5.2202L3.50774 6.65912L1.74202 6.65912C1.46335 6.65912 1.23535 6.88712 1.23535 7.16579C1.23535 7.44445 1.46335 7.67245 1.74202 7.67245L3.50774 7.67245L3.50774 8.85044L1.74202 8.85044C1.46335 8.85044 1.23535 9.07844 1.23535 9.35711C1.23535 9.63577 1.46335 9.86377 1.74202 9.86377L3.50774 9.86377L3.50774 11.0418L1.74202 11.0418C1.46335 11.0418 1.23535 11.2698 1.23535 11.5484C1.23535 11.8271 1.46335 12.0551 1.74202 12.0551L3.50774 12.0551L3.50774 13.2331L1.74202 13.2331C1.46335 13.2331 1.23535 13.4611 1.23535 13.7397C1.23535 14.0184 1.46335 14.2464 1.74202 14.2464L3.50774 14.2464L3.50774 15.6853C3.50774 16.6632 4.3032 17.4587 5.28106 17.4587L6.06132 17.4587L6.06132 19.2953C6.06132 19.574 6.28932 19.802 6.56799 19.802C6.84665 19.802 7.07465 19.574 7.07465 19.2953L7.07465 17.4587L8.25264 17.4587L8.25264 19.2953C8.25264 19.574 8.48064 19.802 8.75931 19.802C9.03797 19.802 9.26597 19.574 9.26597 19.2953L9.26597 17.4587L10.444 17.4587L10.444 19.2953C10.444 19.574 10.672 19.802 10.9506 19.802C11.2293 19.802 11.4573 19.574 11.4573 19.2953L11.4573 17.4587L12.6353 17.4587L12.6353 19.2953C12.6353 19.574 12.8633 19.802 13.1419 19.802C13.4206 19.802 13.6486 19.574 13.6486 19.2953L13.6486 17.4587L15.7462 17.4587C16.7241 17.4587 17.5195 16.6632 17.5195 15.6853L17.5195 14.2464L19.2852 14.2464C19.5639 14.2464 19.7919 14.0184 19.7919 13.7397C19.7919 13.4611 19.5639 13.2331 19.2852 13.2331L17.5195 13.2331L17.5195 12.0551L19.2852 12.0551C19.5639 12.0551 19.7919 11.8271 19.7919 11.5484C19.7919 11.2698 19.5639 11.0418 19.2852 11.0418L17.5195 11.0418L17.5195 9.86377L19.2852 9.86377C19.5639 9.86377 19.7919 9.63577 19.7919 9.35711C19.7919 9.07844 19.5639 8.85044 19.2852 8.85044L17.5195 8.85044L17.5195 7.67245L19.2852 7.67245ZM16.5062 15.6828C16.5062 16.1008 16.1642 16.4428 15.7462 16.4428L5.28106 16.4428C4.86306 16.4428 4.52106 16.1008 4.52106 15.6828L4.52106 5.2202C4.52106 4.8022 4.86306 4.4602 5.28106 4.4602L15.7462 4.4602C16.1642 4.4602 16.5062 4.8022 16.5062 5.2202L16.5062 15.6828L16.5062 15.6828Z" fill="rgb(0,91,255)" fill-rule="nonzero" />
	<path id="Форма 15" d="M7.69783 11.0899L8.97209 11.0899L9.25075 11.8144L9.94995 11.8144L8.67315 8.6275L7.99169 8.6275L6.75037 11.8144L7.43436 11.8144L7.69783 11.0899ZM8.32609 9.36977L8.76435 10.5528L7.89543 10.5528L8.32609 9.36977ZM10.9354 10.6136L11.3559 10.6136C11.6473 10.6136 11.8702 10.5984 12.0247 10.568C12.1387 10.5427 12.2502 10.492 12.3591 10.416C12.4681 10.34 12.5593 10.2362 12.6302 10.1019C12.7011 9.96763 12.7366 9.80296 12.7366 9.6079C12.7366 9.35456 12.6758 9.14683 12.5517 8.98723C12.4275 8.82763 12.2755 8.72377 12.0931 8.67564C11.9741 8.6427 11.7182 8.6275 11.3281 8.6275L10.2919 8.6275L10.2919 11.8144L10.9354 11.8144L10.9354 10.6136ZM10.9354 9.1671L11.247 9.1671C11.4801 9.1671 11.6321 9.1747 11.7106 9.1899C11.8145 9.20763 11.9006 9.25576 11.969 9.33176C12.0374 9.40776 12.0703 9.50403 12.0703 9.61803C12.0703 9.71176 12.045 9.79536 11.9969 9.86629C11.9487 9.93723 11.8803 9.99043 11.7967 10.0234C11.7106 10.0563 11.5409 10.074 11.2875 10.074L10.9354 10.074L10.9354 9.1671L10.9354 9.1671ZM13.2433 8.6275L13.8867 8.6275L13.8867 11.8144L13.2433 11.8144L13.2433 8.6275Z" fill="rgb(0,91,255)" fill-rule="nonzero" />
</svg>
