<svg viewBox="0 0 21 21" xmlns="http://www.w3.org/2000/svg" xmlns:xlink="http://www.w3.org/1999/xlink" width="21.000000" height="21.000000" fill="none">
	<rect id="html" width="21.000000" height="21.000000" x="0.000000" y="0.000000" fill="rgb(255,255,255)" fill-opacity="0" />
	<path id="Vector" d="M2.91211 18.8672L1.23047 0L19.7285 0L18.0469 18.8672L10.459 21" fill="rgb(227,79,38)" fill-rule="nonzero" />
	<path id="Vector" d="M10.5 19.3594L16.6113 17.6777L18.0469 1.51758L10.5 1.51758" fill="rgb(239,101,42)" fill-rule="nonzero" />
	<path id="Vector" d="M10.5 8.53125L7.42383 8.53125L7.21875 6.15234L10.5 6.15234L10.5 3.85547L10.459 3.85547L4.67578 3.85547L4.7168 4.4707L5.29102 10.8691L10.5 10.8691L10.5 8.53125ZM10.5 14.5605L10.459 14.5605L7.875 13.8633L7.71094 12.0176L6.48047 12.0176L5.41406 12.0176L5.70117 15.668L10.459 16.9805L10.5 16.9805L10.5 14.5605Z" fill="rgb(235,235,235)" fill-rule="nonzero" />
	<path id="Vector" d="M10.459 8.53125L10.459 10.8691L13.3301 10.8691L13.043 13.8633L10.459 14.5605L10.459 16.9805L15.2168 15.668L15.2578 15.2578L15.791 9.14648L15.873 8.53125L15.2168 8.53125L10.459 8.53125ZM10.459 3.85547L10.459 5.29102L10.459 6.15234L16.0781 6.15234L16.1191 5.66016L16.2422 4.4707L16.2832 3.85547L10.459 3.85547Z" fill="rgb(255,255,255)" fill-rule="nonzero" />
</svg>
