<svg viewBox="0 0 21 21" xmlns="http://www.w3.org/2000/svg" xmlns:xlink="http://www.w3.org/1999/xlink" width="21.000000" height="21.000000" fill="none">
	<rect id="light gallery" width="21.000000" height="21.000000" x="0.000000" y="0.000000" fill="rgb(255,255,255)" fill-opacity="0" />
	<path id="Vector" d="M11.8093 14.8877C11.8449 14.8872 11.8449 14.8872 11.8813 14.8867C12.1366 14.8884 12.3037 14.9935 12.487 15.169C12.6044 15.3054 12.6036 15.4706 12.5981 15.6442C12.5782 15.7956 12.5152 15.905 12.4376 16.0345C12.4056 16.0913 12.374 16.1483 12.3424 16.2053C12.321 16.2441 12.2993 16.2827 12.2774 16.3212C12.2163 16.4295 12.165 16.5381 12.1165 16.6527C12.0823 16.7209 12.0461 16.788 12.01 16.8552C11.8838 17.0923 11.7639 17.3323 11.645 17.5731C11.5671 17.7302 11.4866 17.885 11.4002 18.0376C11.3702 18.0921 11.3403 18.1467 11.3106 18.2014C11.2966 18.2272 11.2825 18.2531 11.268 18.2797C11.2262 18.3587 11.2262 18.3587 11.1922 18.4417C11.146 18.5487 11.0924 18.6504 11.0374 18.7532C10.9569 18.9049 10.8776 19.0569 10.8012 19.2107C10.7931 19.2269 10.785 19.2432 10.7766 19.2599C10.7409 19.3317 10.7057 19.4037 10.6712 19.476C10.4749 19.8837 10.2837 20.183 9.83872 20.3396C9.81602 20.3471 9.79332 20.3545 9.76993 20.3622C9.74548 20.3703 9.72102 20.3785 9.69583 20.3869C9.47362 20.4045 9.30052 20.3904 9.10301 20.288C9.08577 20.2792 9.06852 20.2704 9.05075 20.2614C8.84558 20.1569 8.64212 20.0499 8.44641 19.9284C8.38524 19.8914 8.32321 19.8569 8.2604 19.8228C8.23651 19.8099 8.21263 19.7969 8.18802 19.7835C8.16392 19.7704 8.13982 19.7574 8.11499 19.7439C8.07115 19.7201 8.02731 19.6962 7.98348 19.6723C7.96187 19.6606 7.94025 19.6488 7.91799 19.6367C7.60452 19.4659 7.29215 19.2937 6.98494 19.1118C6.59311 18.8799 6.19944 18.6492 5.79556 18.4389C5.51533 18.2923 5.24227 18.1317 4.97064 17.9698C4.78969 17.8621 4.60628 17.7601 4.42072 17.6605C4.09114 17.4834 3.76913 17.2942 3.44714 17.1038C3.26097 16.9943 3.07213 16.8908 2.88128 16.7897C2.3941 16.5275 2.3941 16.5275 2.2764 16.2864C2.24495 16.1258 2.26915 15.9743 2.35977 15.8367C2.45116 15.7492 2.54198 15.692 2.65618 15.6388C2.66433 15.6307 2.67248 15.6225 2.68088 15.6141C2.72199 15.6108 2.76324 15.6091 2.80448 15.608C2.83047 15.6072 2.85647 15.6064 2.88326 15.6056C2.93729 15.6041 2.99132 15.6027 3.04535 15.6013C3.20933 15.5961 3.36932 15.5815 3.53189 15.5596C3.76644 15.529 4.00262 15.5165 4.23855 15.5013C4.30988 15.4966 4.38121 15.4919 4.45253 15.4872C4.49646 15.4842 4.54039 15.4814 4.58433 15.4786C4.67179 15.4728 4.75747 15.4655 4.8443 15.453C4.93949 15.4395 5.03405 15.4343 5.12999 15.4304C5.16914 15.4286 5.20828 15.4268 5.24743 15.425C5.26771 15.4241 5.28799 15.4232 5.30889 15.4222C5.62459 15.4078 5.93671 15.3882 6.24995 15.3446C6.41915 15.3214 6.58759 15.3066 6.75801 15.2957C7.11425 15.2728 7.46935 15.2393 7.82476 15.2061C8.23139 15.1681 8.63736 15.1337 9.04514 15.1113C9.26008 15.099 9.47207 15.0759 9.68548 15.0479C9.91881 15.0183 10.1523 15.0038 10.3871 14.9903C10.6053 14.9773 10.8222 14.9584 11.0396 14.9361C11.2961 14.91 11.5513 14.8895 11.8093 14.8877Z" fill="rgb(2,164,254)" fill-rule="nonzero" />
	<path id="Vector" d="M9.27534 0.906203C9.41374 0.983514 9.53102 1.08054 9.59976 1.22581C9.66746 1.49029 9.46678 1.76659 9.34608 1.99007C9.23833 2.19074 9.14188 2.39661 9.0444 2.6024C8.99716 2.70211 8.94881 2.80107 8.89903 2.89953C8.85573 2.98517 8.81471 3.07131 8.77555 3.15892C8.70134 3.32447 8.61925 3.48599 8.53752 3.64791C8.49626 3.72979 8.45534 3.81184 8.41438 3.89388C8.3866 3.94946 8.35882 4.00505 8.33104 4.06063C8.32362 4.07549 8.3162 4.09035 8.30856 4.10566C8.27369 4.17548 8.23872 4.24526 8.20351 4.31491C8.13564 4.44942 8.07021 4.58477 8.00691 4.72147C7.93179 4.88367 7.85293 5.04367 7.77231 5.2032C7.74035 5.26699 7.70848 5.33083 7.67661 5.39466C7.65983 5.42825 7.64304 5.46183 7.62626 5.49541C7.61781 5.5123 7.60937 5.5292 7.60067 5.5466C7.54148 5.66503 7.48229 5.78345 7.4231 5.90187C7.41565 5.91679 7.4082 5.93171 7.40053 5.94708C7.38398 5.98014 7.36739 6.01318 7.35075 6.04619C7.33767 6.0722 7.33767 6.0722 7.32432 6.09873C7.31246 6.12224 7.31246 6.12224 7.30037 6.14621C7.27934 6.18945 7.26029 6.23364 7.24136 6.27784C7.19986 6.37471 7.15327 6.46805 7.10553 6.56194C7.08904 6.59487 7.07258 6.62781 7.05614 6.66076C6.99029 6.79251 6.92443 6.92427 6.85858 7.05603C6.8464 7.08048 6.8464 7.08048 6.83398 7.10543C6.8174 7.13848 6.80061 7.17142 6.78363 7.20425C6.72565 7.31715 6.67901 7.43055 6.63632 7.55011C6.62002 7.55011 6.60372 7.55011 6.58693 7.55011C6.58301 7.56358 6.5791 7.57705 6.57507 7.59093C6.53591 7.71754 6.48628 7.828 6.4186 7.94191C6.38691 7.99923 6.36386 8.05736 6.33998 8.11831C6.28176 8.24173 6.21885 8.36239 6.15168 8.48115C6.10056 8.57196 6.05916 8.66441 6.01894 8.76062C5.99639 8.80655 5.97377 8.85245 5.95054 8.89804C5.9265 8.94568 5.90302 8.99361 5.87974 9.04163C5.72999 9.34958 5.72999 9.34959 5.62381 9.47705C5.60752 9.47705 5.59122 9.47705 5.57442 9.47705C5.57442 9.49335 5.57442 9.50966 5.57442 9.52645C5.35224 9.67887 5.16468 9.70831 4.89984 9.66542C4.65336 9.59369 4.48378 9.35134 4.34555 9.15028C4.28095 9.05779 4.21364 8.96725 4.14673 8.87642C4.12425 8.84587 4.12425 8.84587 4.10133 8.81469C4.00238 8.68064 3.90115 8.54875 3.79755 8.41827C3.67376 8.26205 3.55488 8.1022 3.43582 7.94236C3.38431 7.87326 3.33258 7.80433 3.28085 7.73539C3.18636 7.60942 3.18636 7.60942 3.14107 7.54866C3.03421 7.40544 2.92506 7.26397 2.81599 7.12243C2.62902 6.87981 2.44234 6.63697 2.25678 6.39328C2.22957 6.35759 2.20233 6.32193 2.17504 6.28631C1.6766 5.6351 1.6766 5.6351 1.72196 5.1538C1.79365 4.82828 2.00466 4.62509 2.27451 4.44837C2.40341 4.36861 2.53684 4.3003 2.67273 4.23337C2.97599 4.08236 3.27206 3.91964 3.5654 3.75024C3.69727 3.67436 3.83015 3.60336 3.96711 3.53702C4.10528 3.46738 4.23956 3.39057 4.37448 3.31487C4.61509 3.18015 4.85834 3.05057 5.10219 2.92185C5.38763 2.77112 5.6728 2.6199 5.9572 2.46721C5.98248 2.45369 6.00776 2.44017 6.0338 2.42624C6.14767 2.36495 6.25996 2.30221 6.37046 2.23502C6.47117 2.17386 6.57341 2.11985 6.67954 2.06885C6.80979 2.00506 6.93701 1.93806 7.06232 1.86504C7.16169 1.80717 7.26148 1.75189 7.36483 1.70137C7.72227 1.52593 8.06788 1.32555 8.41564 1.13182C8.53826 1.06355 8.66103 0.995522 8.78481 0.929363C8.80035 0.920192 8.81588 0.91102 8.83189 0.901571C8.96816 0.844602 9.13907 0.855619 9.27534 0.906203Z" fill="rgb(254,54,67)" fill-rule="nonzero" />
	<path id="Vector" d="M11.4332 0.583331C11.4659 0.58342 11.4659 0.58342 11.4993 0.58351C11.7812 0.591236 12.0119 0.694173 12.2399 0.856876C12.3049 0.901329 12.3737 0.933621 12.445 0.967134C12.4968 0.993189 12.5402 1.02718 12.5864 1.06182C12.6276 1.07848 12.6689 1.09478 12.7103 1.11074C12.7517 1.13503 12.7929 1.15952 12.8341 1.18412C12.8665 1.20012 12.899 1.2159 12.9316 1.23151C13.02 1.27449 13.0988 1.32579 13.1809 1.37979C13.2454 1.41559 13.3106 1.45018 13.3758 1.4848C13.4607 1.53055 13.5445 1.5781 13.6282 1.62592C13.7259 1.68156 13.8238 1.735 13.9254 1.78337C14.0252 1.83108 14.1183 1.88695 14.2118 1.94542C14.3292 2.01812 14.4371 2.06979 14.5678 2.11358C14.6421 2.15179 14.6421 2.15179 14.6917 2.18695C14.6917 2.2031 14.6917 2.21924 14.6917 2.23587C14.7128 2.24221 14.7339 2.24855 14.7557 2.25508C14.844 2.28611 14.9221 2.32462 15.0044 2.36887C15.0454 2.39077 15.0454 2.39077 15.0874 2.41311C15.1495 2.44871 15.2044 2.48646 15.2613 2.52939C15.3024 2.54605 15.3437 2.56234 15.3852 2.57831C15.4456 2.61181 15.5013 2.64559 15.5554 2.68837C15.6121 2.72789 15.6706 2.75116 15.7343 2.7776C15.8088 2.81052 15.8782 2.85108 15.9486 2.89169C15.979 2.9091 16.0094 2.92649 16.0398 2.94386C16.0547 2.95238 16.0697 2.9609 16.085 2.96968C16.1688 3.01712 16.2538 3.06231 16.3388 3.10772C16.3947 3.13772 16.4503 3.16823 16.5059 3.19896C16.5896 3.24514 16.6741 3.28974 16.7589 3.33399C16.9031 3.4093 17.0447 3.48681 17.184 3.57082C17.3206 3.65176 17.462 3.72462 17.6028 3.79822C17.8154 3.90945 18.0256 4.02381 18.2334 4.14371C18.2479 4.15191 18.2624 4.16011 18.2774 4.16856C18.662 4.38621 18.662 4.38621 18.7287 4.58398C18.7482 4.73828 18.7359 4.85337 18.6435 4.98135C18.4976 5.1435 18.3285 5.20024 18.113 5.21372C18.094 5.21508 18.0749 5.21644 18.0553 5.21784C18.0142 5.22075 17.9732 5.22358 17.9321 5.22633C17.8235 5.23362 17.715 5.24158 17.6065 5.24945C17.5734 5.25182 17.5734 5.25182 17.5397 5.25424C17.3366 5.26892 17.1337 5.2857 16.9309 5.30382C16.8953 5.30699 16.8598 5.31012 16.8243 5.31321C16.775 5.3175 16.7258 5.32193 16.6765 5.32636C16.6488 5.32884 16.6211 5.33132 16.5926 5.33388C16.5224 5.34024 16.5224 5.34024 16.4501 5.36668C16.4095 5.37105 16.3687 5.3743 16.3279 5.37689C16.3028 5.37853 16.2777 5.38018 16.2518 5.38187C16.2244 5.38358 16.197 5.38528 16.1687 5.38703C16.1093 5.3909 16.05 5.39478 15.9906 5.39865C15.9593 5.40067 15.9279 5.40268 15.8956 5.40475C15.7319 5.41531 15.5681 5.42622 15.4044 5.43729C15.3796 5.43897 15.3796 5.43897 15.3543 5.44068C15.032 5.46256 14.7101 5.48828 14.3883 5.5165C14.3659 5.51846 14.3435 5.52042 14.3204 5.52244C14.1928 5.53366 14.0652 5.5451 13.9376 5.55665C13.8732 5.56246 13.8087 5.56821 13.7442 5.57394C13.4165 5.60312 13.0888 5.6335 12.7612 5.66453C12.6774 5.67246 12.5936 5.68033 12.5098 5.68819C12.2574 5.71202 12.0053 5.73693 11.7536 5.76727C11.6043 5.78504 11.4561 5.79259 11.3058 5.79855C11.2239 5.80331 11.1454 5.81601 11.0648 5.83074C10.8886 5.86103 10.7124 5.86858 10.5341 5.87628C10.2435 5.889 9.95555 5.90682 9.66699 5.94454C9.14743 6.0124 9.14743 6.0124 8.94565 5.95371C8.94565 5.93757 8.94565 5.92142 8.94565 5.90479C8.9247 5.90025 8.90376 5.89571 8.88218 5.89103C8.70439 5.81761 8.6105 5.6767 8.52083 5.51382C8.45152 5.27032 8.52154 5.08979 8.63605 4.87291C8.64966 4.84607 8.66327 4.81924 8.6773 4.79159C8.71675 4.71399 8.75684 4.63674 8.79704 4.55952C8.82401 4.50663 8.85079 4.45366 8.87752 4.40066C8.89286 4.3703 8.90828 4.33997 8.92379 4.30969C9.00079 4.15907 9.07304 4.00624 9.14458 3.85303C9.15788 3.82486 9.15788 3.82486 9.17145 3.79612C9.17927 3.7794 9.18709 3.76267 9.19514 3.74544C9.21809 3.70344 9.21809 3.70344 9.26762 3.65452C9.28366 3.61891 9.29831 3.58268 9.31212 3.54617C9.36697 3.40665 9.43075 3.2725 9.49672 3.13782C9.50857 3.11347 9.52043 3.08912 9.53265 3.06404C9.63212 2.86033 9.73386 2.65779 9.83727 2.45601C9.84544 2.43986 9.85361 2.42372 9.86204 2.40709C9.87838 2.40709 9.89473 2.40709 9.91157 2.40709C9.9142 2.37786 9.9142 2.37786 9.91689 2.34804C9.9427 2.23165 9.99393 2.13626 10.0493 2.03102C10.072 1.9872 10.0947 1.94338 10.1174 1.89956C10.1287 1.87786 10.1399 1.85617 10.1516 1.83382C10.1892 1.76106 10.2258 1.68781 10.2622 1.61444C10.6607 0.814974 10.6607 0.814974 11.0509 0.670468C11.0718 0.658171 11.0928 0.645875 11.1144 0.633205C11.2236 0.586822 11.3155 0.582998 11.4332 0.583331Z" fill="rgb(253,152,2)" fill-rule="nonzero" />
	<path id="Vector" d="M16.3634 11.3293C16.6238 11.4854 16.7913 11.747 16.9627 11.9905C17.0326 12.0896 17.1046 12.1865 17.179 12.2822C17.267 12.3956 17.353 12.5102 17.4375 12.6262C17.6204 12.8771 17.8059 13.1261 17.9961 13.3714C18.1089 13.5175 18.2166 13.6669 18.324 13.8168C18.4043 13.9286 18.4859 14.039 18.5703 14.1477C18.6808 14.2902 18.7878 14.435 18.8938 14.5809C18.9409 14.6456 18.9886 14.7097 19.0368 14.7736C19.2726 15.0872 19.4216 15.3362 19.3843 15.742C19.3039 16.0325 19.1379 16.2944 18.8758 16.4483C18.8023 16.4872 18.7283 16.5246 18.6539 16.5617C18.3916 16.6951 18.1348 16.8359 17.8795 16.9822C17.6526 17.1119 17.4227 17.2333 17.1883 17.3488C17.0027 17.4409 16.8194 17.5352 16.6397 17.6384C16.3011 17.8327 15.9557 18.0152 15.6105 18.1973C15.5196 18.2453 15.429 18.2939 15.3389 18.3435C15.2186 18.4097 15.097 18.4734 14.9753 18.5371C14.8198 18.6187 14.6656 18.7021 14.5125 18.7882C14.3177 18.8977 14.1199 19.0011 13.9215 19.1039C13.7868 19.1739 13.6536 19.2455 13.5221 19.3211C13.3454 19.4226 13.1647 19.516 12.9835 19.6093C12.7634 19.7228 12.5453 19.8385 12.3307 19.9621C12.1555 20.0611 12.0346 20.1128 11.8321 20.0804C11.6766 20.0254 11.5788 19.9404 11.4932 19.7999C11.4295 19.6635 11.4134 19.5784 11.4607 19.4358C11.4892 19.3749 11.5184 19.3151 11.5489 19.2553C11.5577 19.2379 11.5665 19.2206 11.5755 19.2027C11.6031 19.1481 11.631 19.0936 11.6588 19.0392C11.6674 19.0222 11.6761 19.0053 11.6849 18.9879C11.7451 18.87 11.8056 18.7524 11.8662 18.6348C11.8753 18.617 11.8845 18.5993 11.8939 18.581C12.0092 18.357 12.1247 18.1331 12.2433 17.9108C12.3787 17.6558 12.5045 17.3956 12.6329 17.137C12.6856 17.0308 12.7384 16.9246 12.7913 16.8184C12.8183 16.7641 12.8453 16.7097 12.8722 16.6553C13.0129 16.3713 13.1553 16.0893 13.311 15.8132C13.3854 15.681 13.453 15.547 13.5159 15.4089C13.6212 15.1832 13.7347 14.9632 13.8517 14.7434C13.9221 14.6103 13.9914 14.4766 14.0606 14.3429C14.0755 14.3143 14.0904 14.2856 14.1057 14.256C14.2022 14.0694 14.2969 13.882 14.3901 13.6936C14.4464 13.5803 14.5039 13.4678 14.5634 13.3562C14.6752 13.1465 14.7822 12.9346 14.8872 12.7215C14.9077 12.6801 14.9077 12.6801 14.9285 12.6379C14.9847 12.5241 15.0408 12.4103 15.0966 12.2962C15.138 12.2117 15.1797 12.1272 15.2215 12.0428C15.2338 12.0175 15.2461 11.9922 15.2587 11.9661C15.3689 11.7448 15.4943 11.5017 15.715 11.3758C15.749 11.3558 15.749 11.3558 15.7836 11.3353C15.956 11.2466 16.1856 11.2519 16.3634 11.3293Z" fill="rgb(11,204,102)" fill-rule="nonzero" />
	<path id="Vector" d="M1.38401 6.65128C1.41626 6.65087 1.4485 6.65045 1.48173 6.65002C1.66599 6.66842 1.77815 6.79826 1.89481 6.93145C1.97101 7.0299 2.04137 7.1326 2.11254 7.23469C2.19421 7.35049 2.28086 7.46272 2.36679 7.57538C2.37678 7.5885 2.38677 7.60162 2.39706 7.61514C2.50348 7.75472 2.61089 7.89296 2.72388 8.02737C2.82978 8.15518 2.92449 8.2893 3.01948 8.42519C3.21511 8.70393 3.42673 8.97062 3.63824 9.23745C3.72271 9.34442 3.80359 9.45365 3.88336 9.56415C4.01586 9.74708 4.15315 9.92616 4.29353 10.1031C4.39121 10.2262 4.48525 10.3513 4.57717 10.4788C4.66367 10.597 4.7539 10.7125 4.84378 10.8282C4.99444 11.0222 5.14379 11.217 5.29115 11.4135C5.39166 11.5467 5.49397 11.6785 5.59614 11.8105C5.73584 11.9908 5.87454 12.1719 6.01135 12.3544C6.07156 12.4342 6.13263 12.5132 6.19388 12.5921C6.2846 12.7092 6.37248 12.8279 6.45917 12.948C6.51605 13.0251 6.57428 13.101 6.6329 13.1768C6.74663 13.3238 6.85973 13.4712 6.96706 13.623C6.98432 13.6474 7.00158 13.6718 7.01936 13.6969C7.10863 13.8445 7.13905 13.9949 7.0999 14.1635C7.03661 14.3539 6.90687 14.5243 6.73883 14.6338C6.24731 14.7705 5.70224 14.7684 5.196 14.7977C4.78316 14.8217 4.37209 14.855 3.96075 14.8974C3.74019 14.9199 3.52039 14.9379 3.29883 14.9472C3.1557 14.9535 3.01542 14.9692 2.8733 14.9875C2.70773 15.0085 2.54181 15.0157 2.37509 15.0216C2.27598 15.0157 2.27598 15.0157 2.1929 15.0549C1.84177 15.0908 1.51788 15.0936 1.2241 14.8815C1.2044 14.8675 1.18471 14.8536 1.16442 14.8392C0.987788 14.6992 0.859315 14.505 0.801798 14.2871C0.791799 14.1866 0.792864 14.0868 0.794138 13.9859C0.794214 13.9561 0.794289 13.9264 0.794366 13.8958C0.794647 13.8144 0.795262 13.7329 0.796027 13.6515C0.796764 13.5644 0.797069 13.4773 0.797426 13.3901C0.79817 13.2244 0.7993 13.0587 0.800575 12.8929C0.801922 12.7158 0.802862 12.5387 0.803755 12.3616C0.806781 11.7682 0.81153 11.1749 0.816281 10.5815C0.816432 10.5626 0.816583 10.5437 0.816738 10.5243C0.819523 10.1763 0.819523 10.1763 0.820873 10.0128C0.824459 9.57809 0.827388 9.14342 0.828844 8.70872C0.82948 8.52156 0.830507 8.3344 0.831679 8.14725C0.832551 8.00359 0.832921 7.85994 0.832899 7.71627C0.833014 7.62958 0.833635 7.54289 0.83441 7.45619C0.834659 7.41699 0.834699 7.37778 0.834504 7.33857C0.832809 6.96164 0.832809 6.96164 0.975686 6.80762C1.10856 6.68484 1.20256 6.65182 1.38401 6.65128Z" fill="rgb(254,76,157)" fill-rule="nonzero" />
	<path id="Vector" d="M19.591 5.87949C19.6143 5.89027 19.6376 5.90105 19.6615 5.91215C19.8231 5.9915 19.9301 6.08226 20.0371 6.22586C20.0491 6.24101 20.0611 6.25616 20.0734 6.27177C20.2107 6.4518 20.2179 6.61938 20.2175 6.83998C20.2177 6.86966 20.2178 6.89933 20.218 6.9299C20.2183 7.01207 20.2185 7.09424 20.2185 7.1764C20.2186 7.2651 20.219 7.3538 20.2193 7.44249C20.22 7.63633 20.2203 7.83016 20.2205 8.024C20.2206 8.14508 20.2208 8.26615 20.2211 8.38723C20.2217 8.72259 20.2222 9.05795 20.2224 9.3933C20.2224 9.42548 20.2224 9.42548 20.2224 9.45831C20.2224 9.49056 20.2224 9.49056 20.2224 9.52346C20.2224 9.56703 20.2225 9.61059 20.2225 9.65416C20.2225 9.67577 20.2225 9.69738 20.2225 9.71965C20.2227 10.0699 20.2236 10.4201 20.2247 10.7703C20.2259 11.13 20.2265 11.4898 20.2266 11.8495C20.2266 12.0514 20.2269 12.2533 20.2278 12.4552C20.2286 12.6271 20.2288 12.799 20.2284 12.9709C20.2282 13.0586 20.2283 13.1463 20.229 13.2339C20.2297 13.3291 20.2293 13.4242 20.2288 13.5194C20.2294 13.5607 20.2294 13.5607 20.23 13.6029C20.2276 13.788 20.1848 13.9043 20.0619 14.044C19.9158 14.1857 19.8234 14.2305 19.6146 14.2333C19.4574 14.2279 19.382 14.175 19.2767 14.0639C19.1829 13.9505 19.0915 13.8362 19.0044 13.7175C18.9706 13.6716 18.9364 13.6262 18.902 13.5807C18.7501 13.38 18.6005 13.1776 18.4512 12.9749C18.2836 12.7476 18.1136 12.5222 17.9415 12.2982C17.8359 12.1606 17.7319 12.0222 17.6304 11.8815C17.5796 11.8115 17.5275 11.7425 17.4754 11.6735C17.395 11.567 17.3169 11.4592 17.2399 11.3503C17.1456 11.2172 17.0469 11.0884 16.9454 10.9608C16.7303 10.6898 16.5267 10.4101 16.3218 10.1315C16.239 10.0191 16.1549 9.9079 16.069 9.79782C15.9602 9.65781 15.858 9.5137 15.7563 9.36848C15.6806 9.2608 15.6028 9.15593 15.5207 9.05298C15.466 8.98211 15.4144 8.90911 15.3628 8.83602C15.2424 8.6661 15.1161 8.50104 14.989 8.33608C14.8861 8.20239 14.7849 8.06741 14.6838 7.9323C14.634 7.86571 14.5837 7.79946 14.5332 7.73341C13.9749 7.00193 13.9749 7.00193 14.0153 6.69594C14.062 6.51865 14.1663 6.38404 14.3127 6.27534C14.4825 6.18393 14.6534 6.16383 14.8441 6.15599C14.9058 6.1587 14.9058 6.1587 14.9322 6.1269C14.9768 6.1218 15.0216 6.11828 15.0664 6.1154C15.1089 6.11255 15.1089 6.11255 15.1522 6.10964C15.1829 6.10768 15.2135 6.10572 15.245 6.1037C15.3084 6.09942 15.3717 6.0951 15.435 6.09075C15.4669 6.08856 15.4989 6.08637 15.5318 6.08411C15.6707 6.07424 15.8095 6.06301 15.9482 6.05113C15.9718 6.04917 15.9955 6.04721 16.0198 6.04519C16.0417 6.04329 16.0635 6.04139 16.0861 6.03943C16.105 6.03781 16.1239 6.03618 16.1435 6.0345C16.1951 6.02929 16.1951 6.02929 16.2406 6.01585C16.3033 6.0013 16.3633 5.99638 16.4275 5.99208C16.4672 5.98935 16.4672 5.98935 16.5078 5.98657C16.5364 5.98469 16.565 5.98281 16.5945 5.98087C16.6556 5.97666 16.7167 5.97246 16.7778 5.96826C16.8737 5.96177 16.9696 5.95531 17.0655 5.94888C17.4051 5.92601 17.7422 5.90077 18.0794 5.85475C18.1666 5.84513 18.2538 5.83666 18.3411 5.82846C18.5005 5.81355 18.5005 5.81355 18.6589 5.79193C18.9636 5.75312 19.3145 5.73131 19.591 5.87949Z" fill="rgb(228,228,7)" fill-rule="nonzero" />
</svg>
