<svg viewBox="0 0 21 21" xmlns="http://www.w3.org/2000/svg" xmlns:xlink="http://www.w3.org/1999/xlink" width="21.000000" height="21.000000" fill="none">
	<rect id="redux 1" width="21.000000" height="21.000000" x="0.000000" y="0.000000" />
	<path id="Форма 1" d="M14.5508 14.6079C15.3257 14.5237 15.9136 13.8228 15.8869 12.9817C15.8602 12.1407 15.1921 11.4678 14.3904 11.4678L14.337 11.4678C13.5085 11.4958 12.8672 12.2247 12.8939 13.0938C12.9207 13.5144 13.0809 13.8789 13.3215 14.1312C12.4129 16.0097 11.0233 17.3834 8.93886 18.5329C7.52251 19.318 6.05276 19.5983 4.583 19.4021C3.38042 19.2339 2.4451 18.6732 1.8571 17.7479C1.00201 16.3741 0.921866 14.8882 1.64341 13.4023C2.15119 12.3369 2.9528 11.5518 3.46057 11.1593C3.35368 10.7949 3.19331 10.1781 3.11317 9.72954C-0.761743 12.6734 -0.360857 16.6545 0.814979 18.5329C1.69682 19.9348 3.48731 20.8039 5.46484 20.8039C5.99927 20.8039 6.53371 20.7478 7.06822 20.6077C10.4888 19.9068 13.081 17.776 14.5508 14.6079L14.5508 14.6079ZM19.2541 11.1314C17.2231 8.63608 14.2301 7.26232 10.8095 7.26232L10.382 7.26232C10.1414 6.75768 9.63367 6.42119 9.07249 6.42119L9.019 6.42119C8.19065 6.44924 7.54933 7.17816 7.57599 8.04735C7.60274 8.88841 8.2708 9.5613 9.07249 9.5613L9.12589 9.5613C9.71381 9.53324 10.2216 9.14073 10.4354 8.60803L10.9164 8.60803C12.9474 8.60803 14.8714 9.22481 16.6085 10.4304C17.9447 11.3556 18.9067 12.5612 19.4412 14.0191C19.8954 15.1966 19.8687 16.3461 19.3877 17.3274C18.6395 18.8133 17.3835 19.6264 15.7266 19.6264C14.6577 19.6264 13.6422 19.2899 13.1077 19.0376C12.8138 19.318 12.2793 19.7665 11.9051 20.047C13.0543 20.6076 14.2301 20.9161 15.3525 20.9161C17.9179 20.9161 19.8153 19.4301 20.5368 17.9442C21.3118 16.318 21.2583 13.5144 19.2541 11.1314L19.2541 11.1314ZM5.67861 15.0844C5.70535 15.9255 6.37342 16.5983 7.17511 16.5983L7.22859 16.5983C8.05703 16.5704 8.69835 15.8414 8.6716 14.9722C8.64494 14.1311 7.9768 13.4583 7.17511 13.4583L7.1217 13.4583C7.06822 13.4583 6.98799 13.4583 6.93467 13.4863C5.83898 11.5798 5.38469 9.50519 5.54506 7.26224C5.65187 5.58005 6.18638 4.12212 7.1217 2.91653C7.89665 1.87917 9.39315 1.37453 10.4087 1.34656C13.2413 1.29045 14.4438 4.99123 14.524 6.47721C14.8714 6.56129 15.4594 6.75759 15.8602 6.89778C15.5395 2.35594 12.8672 0.000855149 10.3018 0.000855149C7.89665 0.000855149 5.67861 1.82324 4.79669 4.51473C3.56745 8.10338 4.36915 11.5518 5.86564 14.2714C5.7321 14.4676 5.65187 14.776 5.67861 15.0845L5.67861 15.0844Z" fill="rgb(118,74,188)" fill-rule="nonzero" />
</svg>
