<svg viewBox="0 0 120 40" xmlns="http://www.w3.org/2000/svg" xmlns:xlink="http://www.w3.org/1999/xlink" width="120.000000" height="40.000000" fill="none">
	<rect id="javascript 1" width="120.000000" height="40.000000" x="0.000000" y="0.000000" />
	<g id="g3">
		<path id="path1" d="M5 6L33 6L33 34L5 34L5 6Z" fill="rgb(247,223,30)" fill-rule="nonzero" />
		<path id="path2" d="M12.3623 29.3989L14.5051 28.1021C14.9185 28.835 15.2945 29.4552 16.1965 29.4552C17.0611 29.4552 17.6063 29.117 17.6063 27.8014L17.6063 18.8547L20.2375 18.8547L20.2375 27.8386C20.2375 30.5639 18.64 31.8044 16.3093 31.8044C14.2044 31.8044 12.9825 30.7142 12.3623 29.3986" fill="rgb(0,0,0)" fill-rule="nonzero" />
		<path id="path3" d="M21.6665 29.1169L23.809 27.8764C24.373 28.7975 25.106 29.4741 26.4028 29.4741C27.4931 29.4741 28.1883 28.929 28.1883 28.1771C28.1883 27.275 27.4741 26.9554 26.2712 26.4293L25.6136 26.1472C23.7151 25.3391 22.4558 24.3242 22.4558 22.1815C22.4558 20.208 23.9594 18.7043 26.3089 18.7043C27.9817 18.7043 29.1846 19.287 30.0491 20.8094L28.0004 22.125C27.5493 21.3169 27.0607 20.9974 26.3089 20.9974C25.5383 20.9974 25.0496 21.4861 25.0496 22.125C25.0496 22.9145 25.5383 23.2341 26.6659 23.7228L27.3237 24.0047C29.5604 24.9633 30.8197 25.9405 30.8197 28.1395C30.8197 30.5079 28.959 31.8046 26.4593 31.8046C24.0159 31.8046 22.437 30.6394 21.6665 29.1169" fill="rgb(0,0,0)" fill-rule="nonzero" />
	</g>
	<path id="text1" d="M39.8653 27.0621C41.9261 27.0621 43.3903 25.9052 43.3903 23.4648L43.3903 14.6071L41.4742 14.6071L41.4742 23.4286C41.4742 24.8567 40.8053 25.3448 39.7749 25.3448C38.8711 25.3448 38.3649 24.8025 37.9311 24.0252L36.3765 24.9833C36.9549 26.1221 38.0395 27.0621 39.8653 27.0621ZM50.2777 22.3802L48.1988 22.3802C46.4815 22.3983 45.2161 23.0852 45.2161 24.6579C45.2161 26.3571 46.4454 27.0621 47.9457 27.0621C49.0665 27.0621 49.7896 26.6283 50.3319 25.8148L50.2777 26.8994L52.1034 26.8994L52.1034 22.4163C52.1034 20.1748 50.7296 19.1444 48.9038 19.1444C47.295 19.1444 46.3911 19.7048 45.7223 20.5002L46.7707 21.5667C47.1865 21.0967 47.765 20.6629 48.7592 20.6629C49.7354 20.6629 50.2777 21.169 50.2777 22.3802L50.2777 22.3802ZM50.2777 23.6456L50.2777 24.2421C50.2777 25.0737 49.5184 25.5979 48.4519 25.5979C47.5119 25.5979 47.0057 25.2544 47.0057 24.6036C47.0057 23.9348 47.53 23.6456 48.3254 23.6456L50.2777 23.6456ZM57.1108 27.0621L57.3458 27.0621L61.1962 19.3071L59.3343 19.3071L57.7977 22.6694C57.5266 23.3021 57.3096 24.3144 57.3096 24.3144C57.3096 24.3144 57.0746 23.3021 56.7854 22.6694L55.2489 19.3071L53.2242 19.3071L57.1108 27.0621ZM66.8904 22.3802L64.8116 22.3802C63.0943 22.3983 61.8289 23.0852 61.8289 24.6579C61.8289 26.3571 63.0581 27.0621 64.5585 27.0621C65.6793 27.0621 66.4024 26.6283 66.9447 25.8148L66.8904 26.8994L68.7162 26.8994L68.7162 22.4163C68.7162 20.1748 67.3424 19.1444 65.5166 19.1444C63.9077 19.1444 63.0039 19.7048 62.335 20.5002L63.3835 21.5667C63.7993 21.0967 64.3777 20.6629 65.372 20.6629C66.3481 20.6629 66.8904 21.169 66.8904 22.3802L66.8904 22.3802ZM66.8904 23.6456L66.8904 24.2421C66.8904 25.0737 66.1312 25.5979 65.0647 25.5979C64.1246 25.5979 63.6185 25.2544 63.6185 24.6036C63.6185 23.9348 64.1427 23.6456 64.9381 23.6456L66.8904 23.6456ZM74.6093 27.0621C76.9232 27.0621 78.6043 25.8148 78.6043 23.6636C78.6043 21.6933 77.4835 20.7171 75.3866 19.7952L74.5912 19.4336C73.3439 18.8913 72.8197 18.4756 72.8197 17.5536C72.8197 16.7221 73.4343 16.1255 74.4105 16.1255C75.3685 16.1255 75.9108 16.5052 76.3808 17.3186L77.8812 16.3967C77.1401 15.0771 76.0374 14.4625 74.4105 14.4625C72.3678 14.4625 70.9577 15.764 70.9577 17.5898C70.9577 19.4879 72.0424 20.3917 73.832 21.1871L74.6454 21.5486C75.9832 22.1452 76.7062 22.6152 76.7062 23.6817C76.7062 24.694 75.8204 25.3629 74.5732 25.3629C73.0728 25.3629 72.3316 24.6036 71.7531 23.6456L70.1804 24.5133C70.8674 25.9052 72.2774 27.0621 74.6093 27.0621L74.6093 27.0621ZM84.2624 27.0621C85.7267 27.0621 86.6305 26.5379 87.3717 25.6883L86.1243 24.6036C85.7086 25.0736 85.1663 25.4533 84.2624 25.4533C82.9066 25.4533 82.0932 24.459 82.0932 23.1033C82.0932 21.7475 82.9066 20.7533 84.2624 20.7533C85.0397 20.7533 85.6724 21.1148 86.034 21.639L87.3355 20.5906C86.6124 19.6867 85.6905 19.1444 84.2624 19.1444C81.9486 19.1444 80.2132 20.8436 80.2132 23.1033C80.2132 25.381 81.9486 27.0621 84.2624 27.0621L84.2624 27.0621ZM89.1071 26.8994L90.9328 26.8994L90.9328 23.2117C90.9328 21.5125 91.674 20.8798 92.7586 20.8798C93.1744 20.8798 93.4636 20.9883 93.7529 21.1329L94.3675 19.4879C94.0421 19.289 93.6625 19.1625 93.1202 19.1625C92.2886 19.1625 91.4209 19.5421 90.9148 20.7352L90.9328 19.3071L89.1071 19.3071L89.1071 26.8994ZM96.8259 17.5717C97.4767 17.5717 98.0371 17.0836 98.0371 16.3605C98.0371 15.6736 97.4767 15.1675 96.8259 15.1675C96.1752 15.1675 95.6148 15.6736 95.6148 16.3605C95.6148 17.0836 96.1752 17.5717 96.8259 17.5717ZM95.904 26.8994L97.7478 26.8994L97.7478 19.3071L95.904 19.3071L95.904 26.8994ZM100.116 30.7317L101.96 30.7317L101.96 25.5979C102.394 26.4475 103.297 27.0621 104.563 27.0621C106.533 27.0621 108.124 25.381 108.124 23.0852C108.124 20.7894 106.551 19.1444 104.599 19.1444C103.297 19.1444 102.394 19.7771 101.906 20.7171L101.96 19.3071L100.116 19.3071L100.116 30.7317ZM104.093 25.4533C102.755 25.4533 101.887 24.5133 101.887 23.0852C101.887 21.7113 102.755 20.7713 104.093 20.7713C105.412 20.7713 106.244 21.7113 106.244 23.0852C106.244 24.5133 105.412 25.4533 104.093 25.4533ZM112.878 27.0802C113.854 27.0802 114.451 26.7187 114.831 26.3571L113.963 25.1279C113.764 25.2906 113.493 25.4894 113.059 25.4894C112.589 25.4894 112.3 25.2363 112.3 24.3686L112.3 20.8436L114.324 20.8436L114.324 19.3071L112.3 19.3071L112.3 15.3482L110.474 15.3482L110.474 19.3071L109.335 19.3071L109.335 20.8436L110.474 20.8436L110.474 24.3325C110.474 26.3571 111.45 27.0802 112.878 27.0802L112.878 27.0802Z" fill="rgb(4,35,62)" fill-rule="nonzero" />
</svg>
