<svg viewBox="0 0 116 40" xmlns="http://www.w3.org/2000/svg" xmlns:xlink="http://www.w3.org/1999/xlink" width="116.000000" height="40.000000" fill="none">
	<rect id="typescript 1" width="116.000000" height="40.000000" x="0.000000" y="0.000000" />
	<rect id="rect1" width="116.000000" height="30.000000" x="0.000000" y="5.000000" rx="1.617504" fill="rgb(49,120,198)" />
	<path id="path1" d="M70.8238 26.8013L70.8238 25.7184C71.8124 26.3445 72.8136 26.6575 73.8278 26.6575C74.9061 26.6575 75.7245 26.4355 76.2829 25.9915C76.8413 25.5475 77.1205 24.9263 77.1205 24.1277C77.1205 23.425 76.9328 22.8644 76.5573 22.446C76.1952 22.0425 75.4259 21.498 74.249 20.8123L74.1166 20.7355C72.7173 19.9241 71.8315 19.2454 71.4593 18.6992C71.087 18.153 70.9009 17.5221 70.9009 16.8066C70.9009 15.8356 71.2795 15.0115 72.037 14.3343C72.7944 13.6572 73.8054 13.3186 75.0698 13.3186C75.8914 13.3186 76.7129 13.456 77.5345 13.7306L77.5345 14.7272C76.7258 14.3631 75.8625 14.181 74.9447 14.181C74.0075 14.181 73.2645 14.4174 72.7157 14.8902C72.1669 15.3629 71.8925 15.9634 71.8925 16.6917C71.8925 17.3944 72.0803 17.9533 72.4558 18.3686C72.8313 18.7838 73.6416 19.3492 74.8869 20.0648C76.177 20.793 77.0355 21.4399 77.4623 22.0052C77.8892 22.5706 78.1026 23.2206 78.1026 23.9552C78.1026 25.0093 77.7351 25.8686 77.0002 26.5329C76.2652 27.1974 75.227 27.5295 73.8855 27.5295C73.4106 27.5295 72.8634 27.456 72.244 27.3091C71.6246 27.1622 71.1511 26.9929 70.8238 26.8013L70.8238 26.8013ZM36.6053 15.4864L40.5534 15.4864L40.5534 13.5497L30.3862 13.5497L30.3862 15.4864L34.3247 15.4864L34.3247 27.2985L36.6053 27.2985L36.6053 15.4864ZM44.1928 28.8705L48.6409 17.4779L46.388 17.4779L43.9232 24.6318C43.8648 24.8511 43.8189 25.0296 43.7857 25.1674L43.7499 25.3222L43.7018 25.3222C43.6505 25.1031 43.6096 24.9318 43.5792 24.8087L43.5285 24.6126L41.1793 17.4779L38.7048 17.4779L42.6235 27.2785L41.9591 28.8896C41.5483 29.7079 40.9257 30.1171 40.0913 30.1171C39.8024 30.1171 39.4815 30.0596 39.1285 29.9445L39.1285 31.7953C39.443 31.8783 39.8345 31.9199 40.303 31.9199C41.972 31.9199 43.2685 30.9034 44.1928 28.8705L44.1928 28.8705ZM52.2973 25.8434L52.2588 25.8434L52.2588 31.8044L50.0274 31.8044L50.0274 17.4769L52.2588 17.4769L52.2588 19.2019L52.2973 19.2019C53.0603 17.8985 54.176 17.2468 55.6445 17.2468C56.8948 17.2468 57.8695 17.6845 58.5685 18.5598C59.2673 19.4351 59.6168 20.6107 59.6168 22.0865C59.6168 23.7222 59.2225 25.0319 58.4338 26.0159C57.6451 26.9998 56.5678 27.4918 55.202 27.4918C53.9452 27.4918 52.977 26.9423 52.2973 25.8434L52.2973 25.8434ZM52.2225 23.2419L52.2225 22.0313C52.2225 21.1925 52.4644 20.4935 52.9481 19.9342C53.4317 19.375 54.0708 19.0954 54.8652 19.0954C55.6148 19.0954 56.209 19.367 56.6478 19.9104C57.0867 20.4538 57.3061 21.2052 57.3061 22.1647C57.3061 23.3087 57.0707 24.1999 56.5999 24.8385C56.1289 25.4772 55.4803 25.7965 54.6538 25.7965C53.9491 25.7965 53.3677 25.5487 52.9096 25.053C52.4515 24.5574 52.2225 23.9536 52.2225 23.2419L52.2225 23.2419ZM69.6685 22.9924L63.0129 22.9924C63.0384 23.9006 63.3165 24.6007 63.8473 25.0931C64.3781 25.5855 65.1075 25.8317 66.0356 25.8317C67.0782 25.8317 68.0348 25.5184 68.9057 24.8917L68.9057 26.6854C68.0157 27.2482 66.8397 27.5295 65.3777 27.5295C63.941 27.5295 62.8143 27.0835 61.9975 26.1914C61.1806 25.2994 60.7722 24.0444 60.7722 22.4266C60.7722 20.8982 61.222 19.6529 62.1214 18.6905C63.0209 17.7281 64.1381 17.2468 65.473 17.2468C66.8079 17.2468 67.8409 17.6785 68.5719 18.5418C69.3029 19.4051 69.6685 20.6041 69.6685 22.1388L69.6685 22.9924ZM67.028 19.5335C67.3955 19.9796 67.5825 20.6039 67.5888 21.4061L63.0829 21.4061C63.1844 20.6487 63.4553 20.0358 63.8957 19.5671C64.3362 19.0986 64.8733 18.8643 65.507 18.8643C66.1534 18.8643 66.6604 19.0874 67.028 19.5335L67.028 19.5335ZM83.7531 27.5295C84.7713 27.5295 85.6478 27.3061 86.3825 26.8593L86.3825 25.9402C85.6478 26.4636 84.7843 26.7253 83.7918 26.7253C82.709 26.7253 81.8374 26.3392 81.1769 25.5668C80.5163 24.7945 80.186 23.7732 80.186 22.503C80.186 21.1882 80.5469 20.1176 81.2688 19.2909C81.9905 18.4644 82.9314 18.0511 84.0914 18.0511C84.9358 18.0511 85.7123 18.2681 86.4212 18.7021L86.4212 17.7064C85.7123 17.4 84.9808 17.2468 84.2268 17.2468C82.7703 17.2468 81.578 17.7431 80.6501 18.7356C79.722 19.7282 79.258 21.0031 79.258 22.5606C79.258 24.0414 79.6704 25.2397 80.4954 26.1556C81.3203 27.0716 82.4062 27.5295 83.7531 27.5295L83.7531 27.5295ZM92.198 18.3637C91.9045 18.1518 91.5601 18.046 91.1646 18.046C90.3928 18.046 89.7454 18.4471 89.2223 19.2494C88.6992 20.0518 88.4377 21.1911 88.4377 22.6674L88.4377 27.2985L87.5766 27.2985L87.5766 17.4394L88.4377 17.4394L88.4377 19.6249L88.476 19.6249C88.6992 18.8739 89.0532 18.2899 89.538 17.8727C90.0228 17.4555 90.5842 17.2468 91.2221 17.2468C91.5857 17.2468 91.911 17.3046 92.198 17.4201L92.198 18.3637ZM93.5777 14.8343C93.7272 14.9792 93.8995 15.0517 94.0946 15.0517C94.3026 15.0517 94.4815 14.9759 94.631 14.8244C94.7806 14.6729 94.8553 14.4917 94.8553 14.2809C94.8553 14.0569 94.779 13.8791 94.6261 13.7473C94.4734 13.6156 94.2961 13.5497 94.0946 13.5497C93.9061 13.5497 93.7353 13.6172 93.5826 13.7523C93.4297 13.8873 93.3534 14.0635 93.3534 14.2809C93.3534 14.5049 93.4281 14.6893 93.5777 14.8343L93.5777 14.8343ZM93.5844 27.2985L93.5844 17.4779L94.5087 17.4779L94.5087 27.2985L93.5844 27.2985ZM97.4692 25.5504L97.5075 25.5504C98.2096 26.872 99.2947 27.5329 100.763 27.5329C102.078 27.5329 103.135 27.0268 103.937 26.0149C104.737 25.0029 105.138 23.6764 105.138 22.0355C105.138 20.5606 104.789 19.3937 104.09 18.5349C103.391 17.6762 102.419 17.2468 101.174 17.2468C100.389 17.2468 99.6696 17.4431 99.0155 17.8358C98.3612 18.2285 97.8586 18.7855 97.5075 19.5071L97.4692 19.5071L97.4692 17.4862L96.5883 17.4862L96.5883 31.8044L97.4692 31.8044L97.4692 25.5504ZM97.5127 21.9004L97.5127 23.1342C97.5127 24.1161 97.8253 24.9593 98.4506 25.664C99.0759 26.3685 99.8977 26.7208 100.916 26.7208C101.928 26.7208 102.75 26.292 103.382 25.4344C104.013 24.5768 104.329 23.4498 104.329 22.0535C104.329 20.8293 104.039 19.8569 103.459 19.1363C102.879 18.4158 102.105 18.0556 101.139 18.0556C99.9847 18.0556 99.092 18.4381 98.4602 19.2033C97.8286 19.9684 97.5127 20.8675 97.5127 21.9004ZM109.398 27.5295C109.798 27.5295 110.227 27.4212 110.684 27.2044L110.684 26.3819C110.265 26.6178 109.874 26.7358 109.513 26.7358C109.005 26.7358 108.644 26.5843 108.432 26.2815C108.219 25.9787 108.113 25.4894 108.113 24.8135L108.113 18.3487L110.684 18.3487L110.684 17.5454L108.113 17.5454L108.113 14.705C107.973 14.7561 107.827 14.8039 107.675 14.8485C107.522 14.8995 107.376 14.9505 107.237 15.0015L107.237 17.5454L105.485 17.5454L105.485 18.3487L107.237 18.3487L107.237 24.9282C107.237 26.6624 107.957 27.5295 109.398 27.5295L109.398 27.5295Z" fill="rgb(255,255,255)" fill-rule="evenodd" />
</svg>
