<svg width="97" height="109" viewBox="0 0 97 109" fill="none" xmlns="http://www.w3.org/2000/svg">
<mask id="path-1-outside-1_2_35" maskUnits="userSpaceOnUse" x="0.864014" y="0.607994" width="96" height="109" fill="black">
<rect fill="white" x="0.864014" y="0.607994" width="96" height="109"/>
<path fill-rule="evenodd" clip-rule="evenodd" d="M1.864 87.624V93H38.024V93.408C38.024 96.0533 37.5547 98.0587 36.616 99.424C35.6773 100.704 34.3973 101.557 32.776 101.984C31.24 102.411 29.4907 102.624 27.528 102.624H25.864V108H94.472L95.368 80.48H88.712L87.432 90.08C87.176 91.872 86.664 93.664 85.896 95.456C85.128 97.248 83.9333 98.7413 82.312 99.936C80.776 101.045 78.728 101.6 76.168 101.6H50.952V92.1867C55.9748 91.3021 60.3908 89.6958 64.2 87.368C70.344 83.6133 74.952 78.3227 78.024 71.496C81.1813 64.584 82.76 56.4773 82.76 47.176C82.76 37.448 81.096 29.2133 77.768 22.472C74.5253 15.6453 69.7893 10.4827 63.56 6.98399C57.3307 3.39999 49.8213 1.60799 41.032 1.60799H1.864V6.98399H3.528C5.40533 6.98399 7.112 7.19733 8.648 7.62399C10.2693 7.96533 11.5493 8.776 12.488 10.056C13.512 11.2507 14.024 13.128 14.024 15.688V78.408C14.024 81.0533 13.5547 83.0587 12.616 84.424C11.6773 85.704 10.3973 86.5573 8.776 86.984C7.24 87.4107 5.49067 87.624 3.528 87.624H1.864ZM50.952 84.1595C52.3907 83.5554 53.7347 82.8329 54.984 81.992C59.5067 78.92 62.8773 74.4827 65.096 68.68C67.4 62.792 68.552 55.624 68.552 47.176C68.552 38.728 67.4 31.6027 65.096 25.8C64.514 24.2777 63.8526 22.8523 63.112 21.5239V21.984H61.448C59.5707 21.984 57.8213 22.1973 56.2 22.624C54.664 22.9653 53.384 23.776 52.36 25.056C51.4213 26.2507 50.952 28.128 50.952 30.688V84.1595ZM59.6203 16.608C58.2396 15.076 56.6942 13.7453 54.984 12.616C50.5467 9.544 44.9573 8.008 38.216 8.008H26.952V16.608H59.6203ZM26.952 21.984V86.472H38.024V31.2C38.024 28.4693 37.5547 26.464 36.616 25.184C35.6773 23.904 34.3973 23.0507 32.776 22.624C31.24 22.1973 29.4907 21.984 27.528 21.984H26.952Z"/>
</mask>
<path fill-rule="evenodd" clip-rule="evenodd" d="M1.864 87.624V93H38.024V93.408C38.024 96.0533 37.5547 98.0587 36.616 99.424C35.6773 100.704 34.3973 101.557 32.776 101.984C31.24 102.411 29.4907 102.624 27.528 102.624H25.864V108H94.472L95.368 80.48H88.712L87.432 90.08C87.176 91.872 86.664 93.664 85.896 95.456C85.128 97.248 83.9333 98.7413 82.312 99.936C80.776 101.045 78.728 101.6 76.168 101.6H50.952V92.1867C55.9748 91.3021 60.3908 89.6958 64.2 87.368C70.344 83.6133 74.952 78.3227 78.024 71.496C81.1813 64.584 82.76 56.4773 82.76 47.176C82.76 37.448 81.096 29.2133 77.768 22.472C74.5253 15.6453 69.7893 10.4827 63.56 6.98399C57.3307 3.39999 49.8213 1.60799 41.032 1.60799H1.864V6.98399H3.528C5.40533 6.98399 7.112 7.19733 8.648 7.62399C10.2693 7.96533 11.5493 8.776 12.488 10.056C13.512 11.2507 14.024 13.128 14.024 15.688V78.408C14.024 81.0533 13.5547 83.0587 12.616 84.424C11.6773 85.704 10.3973 86.5573 8.776 86.984C7.24 87.4107 5.49067 87.624 3.528 87.624H1.864ZM50.952 84.1595C52.3907 83.5554 53.7347 82.8329 54.984 81.992C59.5067 78.92 62.8773 74.4827 65.096 68.68C67.4 62.792 68.552 55.624 68.552 47.176C68.552 38.728 67.4 31.6027 65.096 25.8C64.514 24.2777 63.8526 22.8523 63.112 21.5239V21.984H61.448C59.5707 21.984 57.8213 22.1973 56.2 22.624C54.664 22.9653 53.384 23.776 52.36 25.056C51.4213 26.2507 50.952 28.128 50.952 30.688V84.1595ZM59.6203 16.608C58.2396 15.076 56.6942 13.7453 54.984 12.616C50.5467 9.544 44.9573 8.008 38.216 8.008H26.952V16.608H59.6203ZM26.952 21.984V86.472H38.024V31.2C38.024 28.4693 37.5547 26.464 36.616 25.184C35.6773 23.904 34.3973 23.0507 32.776 22.624C31.24 22.1973 29.4907 21.984 27.528 21.984H26.952Z" fill="white"/>
<path d="M1.864 93H0.864V94H1.864V93ZM1.864 87.624V86.624H0.864V87.624H1.864ZM38.024 93H39.024V92H38.024V93ZM36.616 99.424L37.4224 100.015L37.4314 100.003L37.44 99.9905L36.616 99.424ZM32.776 101.984L32.5215 101.017L32.5084 101.02L32.776 101.984ZM25.864 102.624V101.624H24.864V102.624H25.864ZM25.864 108H24.864V109H25.864V108ZM94.472 108V109H95.44L95.4715 108.033L94.472 108ZM95.368 80.48L96.3675 80.5125L96.4011 79.48H95.368V80.48ZM88.712 80.48V79.48H87.8365L87.7208 80.3478L88.712 80.48ZM87.432 90.08L88.422 90.2214L88.4232 90.2122L87.432 90.08ZM85.896 95.456L84.9769 95.0621L84.9769 95.0621L85.896 95.456ZM82.312 99.936L82.8975 100.747L82.9052 100.741L82.312 99.936ZM50.952 101.6H49.952V102.6H50.952V101.6ZM50.952 92.1867L50.7786 91.2018L49.952 91.3474V92.1867H50.952ZM64.2 87.368L63.6786 86.5147L63.6786 86.5147L64.2 87.368ZM78.024 71.496L77.1144 71.0805L77.1121 71.0856L78.024 71.496ZM77.768 22.472L76.8647 22.9011L76.868 22.9079L76.8713 22.9147L77.768 22.472ZM63.56 6.98399L63.0613 7.85082L63.0703 7.85589L63.56 6.98399ZM1.864 1.60799V0.607994H0.864V1.60799H1.864ZM1.864 6.98399H0.864V7.98399H1.864V6.98399ZM8.648 7.62399L8.38036 8.58751L8.41093 8.596L8.44199 8.60254L8.648 7.62399ZM12.488 10.056L11.6816 10.6474L11.704 10.678L11.7287 10.7068L12.488 10.056ZM12.616 84.424L13.4224 85.0154L13.4314 85.0031L13.44 84.9905L12.616 84.424ZM8.776 86.984L8.52148 86.0168L8.50836 86.0205L8.776 86.984ZM50.952 84.1595H49.952V85.664L51.3392 85.0815L50.952 84.1595ZM54.984 81.992L55.5424 82.8216L55.5459 82.8192L54.984 81.992ZM65.096 68.68L64.1647 68.3156L64.1619 68.3229L65.096 68.68ZM65.096 25.8L64.1619 26.1572L64.1666 26.169L65.096 25.8ZM63.112 21.5239L63.9854 21.0369L62.112 17.6765V21.5239H63.112ZM63.112 21.984V22.984H64.112V21.984H63.112ZM56.2 22.624L56.4169 23.6002L56.4358 23.596L56.4545 23.5911L56.2 22.624ZM52.36 25.056L51.5791 24.4313L51.5737 24.4382L52.36 25.056ZM59.6203 16.608V17.608H61.8678L60.3631 15.9385L59.6203 16.608ZM54.984 12.616L54.4148 13.4382L54.4238 13.4444L54.4329 13.4505L54.984 12.616ZM26.952 8.008V7.008H25.952V8.008H26.952ZM26.952 16.608H25.952V17.608H26.952V16.608ZM26.952 21.984V20.984H25.952V21.984H26.952ZM26.952 86.472H25.952V87.472H26.952V86.472ZM38.024 86.472V87.472H39.024V86.472H38.024ZM36.616 25.184L35.8096 25.7754L35.8096 25.7754L36.616 25.184ZM32.776 22.624L32.5083 23.5876L32.5215 23.5911L32.776 22.624ZM2.864 93V87.624H0.864V93H2.864ZM38.024 92H1.864V94H38.024V92ZM39.024 93.408V93H37.024V93.408H39.024ZM37.44 99.9905C38.5432 98.386 39.024 96.1448 39.024 93.408H37.024C37.024 95.9618 36.5662 97.7313 35.792 98.8575L37.44 99.9905ZM33.0305 102.951C34.86 102.47 36.3403 101.491 37.4224 100.015L35.8096 98.8326C35.0144 99.917 33.9347 100.645 32.5215 101.017L33.0305 102.951ZM27.528 103.624C29.5611 103.624 31.4031 103.403 33.0436 102.948L32.5084 101.02C31.0769 101.418 29.4202 101.624 27.528 101.624V103.624ZM25.864 103.624H27.528V101.624H25.864V103.624ZM26.864 108V102.624H24.864V108H26.864ZM94.472 107H25.864V109H94.472V107ZM94.3685 80.4475L93.4725 107.967L95.4715 108.033L96.3675 80.5125L94.3685 80.4475ZM88.712 81.48H95.368V79.48H88.712V81.48ZM88.4232 90.2122L89.7032 80.6122L87.7208 80.3478L86.4408 89.9478L88.4232 90.2122ZM86.8151 95.8499C87.6151 93.9834 88.1526 92.1067 88.422 90.2214L86.4421 89.9386C86.1994 91.6373 85.7129 93.3446 84.9769 95.0621L86.8151 95.8499ZM82.9052 100.741C84.6649 99.4444 85.9747 97.8111 86.8151 95.8499L84.9769 95.0621C84.2814 96.6849 83.2018 98.0382 81.7188 99.1309L82.9052 100.741ZM76.168 102.6C78.8656 102.6 81.1404 102.016 82.8975 100.747L81.7265 99.1253C80.4116 100.075 78.5904 100.6 76.168 100.6V102.6ZM50.952 102.6H76.168V100.6H50.952V102.6ZM49.952 92.1867V101.6H51.952V92.1867H49.952ZM63.6786 86.5147C59.9902 88.7687 55.6955 90.3359 50.7786 91.2018L51.1255 93.1715C56.2541 92.2683 60.7914 90.623 64.7215 88.2213L63.6786 86.5147ZM77.1121 71.0856C74.1192 77.7364 69.6437 82.8693 63.6786 86.5147L64.7215 88.2213C71.0443 84.3573 75.7848 78.9089 78.9359 71.9064L77.1121 71.0856ZM81.76 47.176C81.76 56.3654 80.2004 64.3248 77.1144 71.0805L78.9336 71.9115C82.1623 64.8433 83.76 56.5893 83.76 47.176H81.76ZM76.8713 22.9147C80.1144 29.484 81.76 37.558 81.76 47.176H83.76C83.76 37.338 82.0776 28.9427 78.6647 22.0293L76.8713 22.9147ZM63.0703 7.85589C69.1086 11.2472 73.7054 16.2498 76.8647 22.9011L78.6713 22.0429C75.3453 15.0409 70.4701 9.71809 64.0497 6.1121L63.0703 7.85589ZM41.032 2.60799C49.6851 2.60799 57.0141 4.37157 63.0613 7.85077L64.0587 6.11722C57.6472 2.42842 49.9575 0.607994 41.032 0.607994V2.60799ZM1.864 2.60799H41.032V0.607994H1.864V2.60799ZM2.864 6.98399V1.60799H0.864V6.98399H2.864ZM3.528 5.98399H1.864V7.98399H3.528V5.98399ZM8.91564 6.66047C7.27866 6.20576 5.48022 5.98399 3.528 5.98399V7.98399C5.33045 7.98399 6.94534 8.1889 8.38036 8.58751L8.91564 6.66047ZM13.2944 9.46464C12.2033 7.97671 10.7047 7.03507 8.85401 6.64544L8.44199 8.60254C9.83392 8.89558 10.8954 9.57529 11.6816 10.6474L13.2944 9.46464ZM15.024 15.688C15.024 13.0292 14.4983 10.8647 13.2473 9.40521L11.7287 10.7068C12.5257 11.6366 13.024 13.2268 13.024 15.688H15.024ZM15.024 78.408V15.688H13.024V78.408H15.024ZM13.44 84.9905C14.5432 83.386 15.024 81.1448 15.024 78.408H13.024C13.024 80.9618 12.5662 82.7313 11.792 83.8575L13.44 84.9905ZM9.03049 87.9511C10.86 87.4696 12.3403 86.491 13.4224 85.0154L11.8096 83.8326C11.0144 84.917 9.93469 85.645 8.52151 86.0169L9.03049 87.9511ZM3.528 88.624C5.56113 88.624 7.40313 88.4032 9.04364 87.9475L8.50836 86.0205C7.07687 86.4181 5.4202 86.624 3.528 86.624V88.624ZM1.864 88.624H3.528V86.624H1.864V88.624ZM51.3392 85.0815C52.8356 84.4531 54.2372 83.7 55.5424 82.8216L54.4256 81.1624C53.2322 81.9657 51.9458 82.6576 50.5648 83.2375L51.3392 85.0815ZM55.5459 82.8192C60.2602 79.617 63.7487 75.0039 66.0301 69.0371L64.1619 68.3229C62.006 73.9615 58.7531 78.223 54.4221 81.1648L55.5459 82.8192ZM66.0272 69.0444C68.3891 63.0085 69.552 55.7092 69.552 47.176H67.552C67.552 55.5388 66.4109 62.5755 64.1648 68.3156L66.0272 69.0444ZM69.552 47.176C69.552 38.6435 68.3893 31.3846 66.0254 25.431L64.1666 26.169C66.4107 31.8208 67.552 38.8125 67.552 47.176H69.552ZM66.0301 25.4429C65.4321 23.8791 64.7509 22.41 63.9854 21.0369L62.2386 22.0108C62.9543 23.2947 63.5958 24.6764 64.1619 26.1571L66.0301 25.4429ZM62.112 21.5239V21.984H64.112V21.5239H62.112ZM63.112 20.984H61.448V22.984H63.112V20.984ZM61.448 20.984C59.4949 20.984 57.6591 21.206 55.9455 21.6569L56.4545 23.5911C57.9835 23.1887 59.6465 22.984 61.448 22.984V20.984ZM55.9831 21.6478C54.2147 22.0408 52.7391 22.9813 51.5791 24.4313L53.1409 25.6807C54.0289 24.5707 55.1133 23.8899 56.4169 23.6002L55.9831 21.6478ZM51.5737 24.4382C50.4297 25.8941 49.952 28.0437 49.952 30.688H51.952C51.952 28.2123 52.4129 26.6072 53.1463 25.6738L51.5737 24.4382ZM49.952 30.688V84.1595H51.952V30.688H49.952ZM60.3631 15.9385C58.9261 14.344 57.3163 12.9578 55.5351 11.7815L54.4329 13.4505C56.072 14.5329 57.5531 15.808 58.8775 17.2775L60.3631 15.9385ZM55.5532 11.7938C50.9111 8.58005 45.1098 7.008 38.216 7.008V9.008C44.8049 9.008 50.1822 10.5079 54.4148 13.4382L55.5532 11.7938ZM38.216 7.008H26.952V9.008H38.216V7.008ZM25.952 8.008V16.608H27.952V8.008H25.952ZM26.952 17.608H59.6203V15.608H26.952V17.608ZM25.952 21.984V86.472H27.952V21.984H25.952ZM26.952 87.472H38.024V85.472H26.952V87.472ZM39.024 86.472V31.2H37.024V86.472H39.024ZM39.024 31.2C39.024 28.3938 38.549 26.1289 37.4224 24.5926L35.8096 25.7754C36.5603 26.799 37.024 28.5448 37.024 31.2H39.024ZM37.4224 24.5926C36.3403 23.117 34.86 22.1384 33.0305 21.6569L32.5215 23.5911C33.9347 23.963 35.0144 24.691 35.8096 25.7754L37.4224 24.5926ZM33.0436 21.6605C31.4031 21.2048 29.5611 20.984 27.528 20.984V22.984C29.4202 22.984 31.0769 23.1899 32.5084 23.5875L33.0436 21.6605ZM27.528 20.984H26.952V22.984H27.528V20.984Z" fill="black" mask="url(#path-1-outside-1_2_35)"/>
</svg>
